%TF.GenerationSoftware,KiCad,Pcbnew,9.0.4*%
%TF.CreationDate,2025-08-24T11:51:45-07:00*%
%TF.ProjectId,production_red_line_new_silk,70726f64-7563-4746-996f-6e5f7265645f,rev?*%
%TF.SameCoordinates,Original*%
%TF.FileFunction,Copper,L2,Bot*%
%TF.FilePolarity,Positive*%
%FSLAX46Y46*%
G04 Gerber Fmt 4.6, Leading zero omitted, Abs format (unit mm)*
G04 Created by KiCad (PCBNEW 9.0.4) date 2025-08-24 11:51:45*
%MOMM*%
%LPD*%
G01*
G04 APERTURE LIST*
G04 Aperture macros list*
%AMRoundRect*
0 Rectangle with rounded corners*
0 $1 Rounding radius*
0 $2 $3 $4 $5 $6 $7 $8 $9 X,Y pos of 4 corners*
0 Add a 4 corners polygon primitive as box body*
4,1,4,$2,$3,$4,$5,$6,$7,$8,$9,$2,$3,0*
0 Add four circle primitives for the rounded corners*
1,1,$1+$1,$2,$3*
1,1,$1+$1,$4,$5*
1,1,$1+$1,$6,$7*
1,1,$1+$1,$8,$9*
0 Add four rect primitives between the rounded corners*
20,1,$1+$1,$2,$3,$4,$5,0*
20,1,$1+$1,$4,$5,$6,$7,0*
20,1,$1+$1,$6,$7,$8,$9,0*
20,1,$1+$1,$8,$9,$2,$3,0*%
G04 Aperture macros list end*
%TA.AperFunction,ComponentPad*%
%ADD10RoundRect,0.250000X0.600000X0.725000X-0.600000X0.725000X-0.600000X-0.725000X0.600000X-0.725000X0*%
%TD*%
%TA.AperFunction,ComponentPad*%
%ADD11O,1.700000X1.950000*%
%TD*%
%TA.AperFunction,ViaPad*%
%ADD12C,0.600000*%
%TD*%
G04 APERTURE END LIST*
D10*
%TO.P,J4,1,Pin_1*%
%TO.N,GND*%
X-116840000Y-45702563D03*
D11*
%TO.P,J4,2,Pin_2*%
%TO.N,Net-(J4-Pin_2)*%
X-119340000Y-45702563D03*
%TO.P,J4,3,Pin_3*%
%TO.N,+5V*%
X-121840000Y-45702563D03*
%TD*%
D12*
%TO.N,GND*%
X-54607475Y139920586D03*
X-26185000Y135916022D03*
X-77173619Y155110283D03*
X951697Y39091328D03*
X-79057364Y170475083D03*
X-25321210Y94292570D03*
X-35115586Y133995103D03*
X-49720927Y144301629D03*
X-19341143Y90450830D03*
X-28021761Y49542739D03*
X22735613Y9743043D03*
X-36481000Y142527618D03*
X-27903717Y128872654D03*
X-103998027Y179715512D03*
X-23823086Y101630277D03*
X-22140961Y133051494D03*
X-84284205Y156354976D03*
X-31543352Y131063175D03*
X-64484077Y147817974D03*
X17003644Y12126634D03*
X-35858203Y61643062D03*
X-83460320Y174954886D03*
X-100512758Y185567765D03*
X-28172012Y120854519D03*
X-28998952Y71488267D03*
X-24827356Y84061162D03*
X-28678824Y137702139D03*
X-34105605Y49781842D03*
X9692471Y27980790D03*
X16792603Y-8280218D03*
X-24130359Y116211628D03*
X3527185Y28473377D03*
X21660432Y-39008750D03*
X-81098746Y184306387D03*
X-30996442Y57525176D03*
X-70553310Y143429452D03*
X25707721Y-44124074D03*
X-41468648Y138685781D03*
X20986691Y-13582083D03*
X-119661782Y-27581849D03*
X-30448665Y63949758D03*
X-85867565Y179887820D03*
X-21130588Y77754909D03*
X-29271696Y106090534D03*
X-119661782Y-30689312D03*
X-119661782Y-34219390D03*
X-5319604Y39472343D03*
%TD*%
%TA.AperFunction,Conductor*%
%TO.N,GND*%
G36*
X50743039Y187940315D02*
G01*
X50788794Y187887511D01*
X50800000Y187836000D01*
X50800000Y-48136000D01*
X50780315Y-48203039D01*
X50727511Y-48248794D01*
X50676000Y-48260000D01*
X-129416000Y-48260000D01*
X-129483039Y-48240315D01*
X-129528794Y-48187511D01*
X-129540000Y-48136000D01*
X-129540000Y-45471276D01*
X-123190500Y-45471276D01*
X-123190500Y-45933850D01*
X-123157246Y-46143806D01*
X-123091557Y-46345975D01*
X-122995051Y-46535379D01*
X-122995048Y-46535383D01*
X-122870109Y-46707349D01*
X-122870106Y-46707351D01*
X-122870104Y-46707355D01*
X-122719792Y-46857667D01*
X-122719788Y-46857669D01*
X-122719786Y-46857672D01*
X-122569789Y-46966649D01*
X-122547816Y-46982614D01*
X-122358412Y-47079120D01*
X-122156243Y-47144809D01*
X-121946287Y-47178063D01*
X-121946286Y-47178063D01*
X-121733714Y-47178063D01*
X-121733713Y-47178063D01*
X-121523757Y-47144809D01*
X-121321588Y-47079120D01*
X-121132184Y-46982614D01*
X-121132181Y-46982612D01*
X-121132179Y-46982611D01*
X-120960213Y-46857672D01*
X-120809896Y-46707355D01*
X-120717552Y-46580253D01*
X-120690316Y-46542767D01*
X-120634989Y-46500103D01*
X-120565376Y-46494124D01*
X-120503580Y-46526729D01*
X-120489686Y-46542762D01*
X-120370104Y-46707355D01*
X-120219792Y-46857667D01*
X-120219788Y-46857669D01*
X-120219786Y-46857672D01*
X-120069789Y-46966649D01*
X-120047816Y-46982614D01*
X-119858412Y-47079120D01*
X-119656243Y-47144809D01*
X-119446287Y-47178063D01*
X-119446286Y-47178063D01*
X-119233714Y-47178063D01*
X-119233713Y-47178063D01*
X-119023757Y-47144809D01*
X-118821588Y-47079120D01*
X-118632184Y-46982614D01*
X-118632181Y-46982612D01*
X-118632179Y-46982611D01*
X-118460213Y-46857672D01*
X-118321035Y-46718494D01*
X-118259712Y-46685009D01*
X-118190020Y-46689993D01*
X-118134087Y-46731865D01*
X-118127815Y-46741079D01*
X-118032317Y-46895906D01*
X-117908345Y-47019878D01*
X-117759124Y-47111919D01*
X-117759119Y-47111921D01*
X-117592697Y-47167068D01*
X-117592690Y-47167069D01*
X-117489980Y-47177562D01*
X-117090000Y-47177562D01*
X-117090000Y-46106708D01*
X-117023343Y-46145193D01*
X-116902535Y-46177563D01*
X-116777465Y-46177563D01*
X-116656657Y-46145193D01*
X-116590000Y-46106708D01*
X-116590000Y-47177562D01*
X-116190028Y-47177562D01*
X-116190013Y-47177561D01*
X-116087302Y-47167068D01*
X-115920880Y-47111921D01*
X-115920875Y-47111919D01*
X-115771654Y-47019878D01*
X-115647684Y-46895908D01*
X-115555643Y-46746687D01*
X-115555641Y-46746682D01*
X-115500494Y-46580260D01*
X-115500493Y-46580253D01*
X-115490000Y-46477549D01*
X-115490000Y-45952563D01*
X-116435854Y-45952563D01*
X-116397370Y-45885906D01*
X-116365000Y-45765098D01*
X-116365000Y-45640028D01*
X-116397370Y-45519220D01*
X-116435854Y-45452563D01*
X-115490001Y-45452563D01*
X-115490001Y-44927576D01*
X-115500494Y-44824865D01*
X-115555641Y-44658443D01*
X-115555643Y-44658438D01*
X-115647684Y-44509217D01*
X-115771654Y-44385247D01*
X-115920875Y-44293206D01*
X-115920880Y-44293204D01*
X-116087302Y-44238057D01*
X-116087309Y-44238056D01*
X-116190013Y-44227563D01*
X-116590000Y-44227563D01*
X-116590000Y-45298417D01*
X-116656657Y-45259933D01*
X-116777465Y-45227563D01*
X-116902535Y-45227563D01*
X-117023343Y-45259933D01*
X-117090000Y-45298417D01*
X-117090000Y-44227563D01*
X-117489971Y-44227563D01*
X-117489987Y-44227564D01*
X-117592697Y-44238057D01*
X-117759119Y-44293204D01*
X-117759124Y-44293206D01*
X-117908345Y-44385247D01*
X-118032315Y-44509217D01*
X-118127815Y-44664047D01*
X-118179763Y-44710771D01*
X-118248726Y-44721994D01*
X-118312808Y-44694150D01*
X-118321035Y-44686632D01*
X-118460215Y-44547452D01*
X-118632179Y-44422514D01*
X-118821585Y-44326007D01*
X-119023760Y-44260316D01*
X-119023759Y-44260316D01*
X-119194202Y-44233320D01*
X-119233713Y-44227063D01*
X-119446287Y-44227063D01*
X-119509644Y-44237097D01*
X-119656239Y-44260316D01*
X-119656241Y-44260316D01*
X-119656243Y-44260317D01*
X-119858412Y-44326006D01*
X-119858413Y-44326006D01*
X-119858414Y-44326007D01*
X-120047820Y-44422514D01*
X-120219786Y-44547453D01*
X-120370105Y-44697772D01*
X-120370109Y-44697777D01*
X-120489682Y-44862356D01*
X-120545011Y-44905022D01*
X-120614625Y-44911001D01*
X-120676420Y-44878396D01*
X-120690318Y-44862356D01*
X-120809890Y-44697777D01*
X-120809894Y-44697772D01*
X-120960213Y-44547453D01*
X-121132179Y-44422514D01*
X-121321585Y-44326007D01*
X-121523760Y-44260316D01*
X-121523759Y-44260316D01*
X-121694202Y-44233320D01*
X-121733713Y-44227063D01*
X-121946287Y-44227063D01*
X-122009644Y-44237097D01*
X-122156239Y-44260316D01*
X-122156241Y-44260316D01*
X-122156243Y-44260317D01*
X-122358412Y-44326006D01*
X-122358413Y-44326006D01*
X-122358414Y-44326007D01*
X-122547820Y-44422514D01*
X-122719786Y-44547453D01*
X-122870109Y-44697776D01*
X-122995048Y-44869742D01*
X-122995049Y-44869744D01*
X-122995051Y-44869747D01*
X-123091557Y-45059151D01*
X-123157246Y-45261320D01*
X-123190500Y-45471276D01*
X-129540000Y-45471276D01*
X-129540000Y187836000D01*
X-129520315Y187903039D01*
X-129467511Y187948794D01*
X-129416000Y187960000D01*
X50676000Y187960000D01*
X50743039Y187940315D01*
G37*
%TD.AperFunction*%
%TD*%
M02*
