M48
; DRILL file {KiCad 9.0.4} date 2025-08-24T11:51:45-0700
; FORMAT={-:-/ absolute / inch / decimal}
; #@! TF.CreationDate,2025-08-24T11:51:45-07:00
; #@! TF.GenerationSoftware,Kicad,Pcbnew,9.0.4
; #@! TF.FileFunction,Plated,1,2,PTH
FMAT,2
INCH
; #@! TA.AperFunction,Plated,PTH,ViaDrill
T1C0.0118
; #@! TA.AperFunction,Plated,PTH,ComponentDrill
T2C0.0374
%
G90
G05
T1
X-4.7111Y-1.0859
X-4.7111Y-1.2082
X-4.7111Y-1.3472
X-4.0944Y7.0754
X-3.9572Y7.3058
X-3.3806Y7.0822
X-3.3183Y6.1557
X-3.2858Y6.888
X-3.1929Y7.2562
X-3.1125Y6.7116
X-3.0383Y6.1067
X-2.7777Y5.6468
X-2.5387Y5.8196
X-2.1499Y5.5087
X-1.9575Y5.6812
X-1.6326Y5.4601
X-1.4363Y5.6113
X-1.4117Y2.4269
X-1.3825Y5.2754
X-1.3427Y1.9599
X-1.2419Y5.16
X-1.2203Y2.2648
X-1.1988Y2.5177
X-1.1524Y4.1768
X-1.1417Y2.8145
X-1.1291Y5.4213
X-1.1091Y4.7581
X-1.1032Y1.9505
X-1.0986Y5.0737
X-1.0309Y5.351
X-0.9969Y3.7123
X-0.9775Y3.3095
X-0.95Y4.5753
X-0.9379Y4.0012
X-0.8717Y5.2382
X-0.8319Y3.0612
X-0.7615Y3.5611
X-0.2094Y1.554
X0.0375Y1.539
X0.1389Y1.121
X0.3816Y1.1016
X0.6611Y-0.326
X0.6694Y0.4774
X0.8262Y-0.5347
X0.8528Y-1.5358
X0.8951Y0.3836
X1.0121Y-1.7372
T2
X-4.7969Y-1.7993
X-4.6984Y-1.7993
X-4.6Y-1.7993
M30
