%TF.GenerationSoftware,KiCad,Pcbnew,7.0.8*%
%TF.CreationDate,2025-08-15T10:43:11-07:00*%
%TF.ProjectId,production_red_line,70726f64-7563-4746-996f-6e5f7265645f,rev?*%
%TF.SameCoordinates,Original*%
%TF.FileFunction,Paste,Top*%
%TF.FilePolarity,Positive*%
%FSLAX46Y46*%
G04 Gerber Fmt 4.6, Leading zero omitted, Abs format (unit mm)*
G04 Created by KiCad (PCBNEW 7.0.8) date 2025-08-15 10:43:11*
%MOMM*%
%LPD*%
G01*
G04 APERTURE LIST*
G04 Aperture macros list*
%AMRotRect*
0 Rectangle, with rotation*
0 The origin of the aperture is its center*
0 $1 length*
0 $2 width*
0 $3 Rotation angle, in degrees counterclockwise*
0 Add horizontal line*
21,1,$1,$2,0,0,$3*%
G04 Aperture macros list end*
%ADD10RotRect,0.700000X0.700000X355.000000*%
%ADD11RotRect,0.700000X0.700000X340.000000*%
%ADD12RotRect,0.700000X0.700000X265.000000*%
%ADD13RotRect,0.700000X0.700000X85.000000*%
%ADD14RotRect,0.700000X0.700000X305.000000*%
%ADD15RotRect,0.700000X0.700000X115.000000*%
%ADD16RotRect,0.700000X0.700000X100.000000*%
%ADD17R,0.700000X0.700000*%
%ADD18RotRect,0.700000X0.700000X310.000000*%
%ADD19RotRect,0.700000X0.700000X275.000000*%
%ADD20RotRect,0.700000X0.700000X145.000000*%
%ADD21RotRect,0.700000X0.700000X295.000000*%
%ADD22RotRect,0.700000X0.700000X150.000000*%
%ADD23RotRect,0.700000X0.700000X160.000000*%
%ADD24RotRect,0.700000X0.700000X195.000000*%
%ADD25RotRect,0.700000X0.700000X95.000000*%
%ADD26RotRect,0.700000X0.700000X15.000000*%
%ADD27RotRect,0.700000X0.700000X130.000000*%
%ADD28RotRect,0.700000X0.700000X250.000000*%
%ADD29RotRect,0.700000X0.700000X330.000000*%
%ADD30RotRect,0.700000X0.700000X175.000000*%
%ADD31RotRect,0.700000X0.700000X320.000000*%
%ADD32RotRect,0.700000X0.700000X280.000000*%
%ADD33RotRect,0.700000X0.700000X140.000000*%
%ADD34RotRect,0.700000X0.700000X325.000000*%
%ADD35RotRect,0.700000X0.700000X125.000000*%
%ADD36RotRect,0.700000X0.700000X170.000000*%
%ADD37RotRect,0.700000X0.700000X70.000000*%
%ADD38RotRect,0.700000X0.700000X350.000000*%
G04 APERTURE END LIST*
D10*
%TO.C,U14*%
X158440890Y143601723D03*
X158536762Y144697538D03*
X156713726Y144857033D03*
X156617854Y143761218D03*
%TD*%
D11*
%TO.C,U46*%
X126365134Y183970138D03*
X126741356Y185003800D03*
X125021718Y185629696D03*
X124645496Y184596034D03*
%TD*%
D12*
%TO.C,U12*%
X229250513Y-11789157D03*
X230346328Y-11885029D03*
X230505823Y-10061993D03*
X229410008Y-9966121D03*
%TD*%
D13*
%TO.C,U45*%
X182108953Y119940631D03*
X181013138Y120036503D03*
X180853643Y118213467D03*
X181949458Y118117595D03*
%TD*%
D14*
%TO.C,U15*%
X208598780Y39770599D03*
X209499847Y40401533D03*
X208450202Y41900581D03*
X207549135Y41269647D03*
%TD*%
D13*
%TO.C,U35*%
X227069832Y-9684174D03*
X225974017Y-9588302D03*
X225814522Y-11411338D03*
X226910337Y-11507210D03*
%TD*%
D15*
%TO.C,U43*%
X227743421Y11699274D03*
X226746482Y11234394D03*
X227519873Y9575850D03*
X228516812Y10040730D03*
%TD*%
D16*
%TO.C,U9*%
X174390709Y60541537D03*
X173307421Y60350524D03*
X173625197Y58548325D03*
X174708485Y58739338D03*
%TD*%
D17*
%TO.C,U34*%
X184369579Y103293425D03*
X185469579Y103293425D03*
X185469579Y105123425D03*
X184369579Y105123425D03*
%TD*%
D18*
%TO.C,U8*%
X217394262Y28640276D03*
X218236911Y29347343D03*
X217060610Y30749204D03*
X216217961Y30042137D03*
%TD*%
D19*
%TO.C,U27*%
X129670271Y155508258D03*
X130766086Y155604130D03*
X130606591Y157427166D03*
X129510776Y157331294D03*
%TD*%
D20*
%TO.C,U25*%
X179214078Y133547236D03*
X178583144Y132646169D03*
X180082192Y131596524D03*
X180713126Y132497591D03*
%TD*%
D21*
%TO.C,U5*%
X230541267Y11010051D03*
X231538206Y11474931D03*
X230764815Y13133475D03*
X229767876Y12668595D03*
%TD*%
D17*
%TO.C,U41*%
X108884663Y183550673D03*
X108884663Y184650673D03*
X107054663Y184650673D03*
X107054663Y183550673D03*
%TD*%
%TO.C,U33*%
X107026718Y181353193D03*
X107026718Y180253193D03*
X108856718Y180253193D03*
X108856718Y181353193D03*
%TD*%
D22*
%TO.C,U37*%
X183351184Y130290298D03*
X182801184Y129337670D03*
X184386010Y128422670D03*
X184936010Y129375298D03*
%TD*%
D12*
%TO.C,U22*%
X233929846Y-42327883D03*
X235025661Y-42423755D03*
X235185156Y-40600719D03*
X234089341Y-40504847D03*
%TD*%
D23*
%TO.C,U26*%
X124028647Y182303978D03*
X123652425Y181270316D03*
X125372063Y180644420D03*
X125748285Y181678082D03*
%TD*%
D24*
%TO.C,U39*%
X178661934Y66884793D03*
X178946635Y65822274D03*
X180714280Y66295913D03*
X180429579Y67358432D03*
%TD*%
D12*
%TO.C,U28*%
X184125868Y118064730D03*
X185221683Y117968858D03*
X185381178Y119791894D03*
X184285363Y119887766D03*
%TD*%
D21*
%TO.C,U21*%
X179353033Y48927730D03*
X180349972Y49392610D03*
X179576581Y51051154D03*
X178579642Y50586274D03*
%TD*%
D25*
%TO.C,U32*%
X186126014Y93719866D03*
X185030199Y93623994D03*
X185189694Y91800958D03*
X186285509Y91896830D03*
%TD*%
D26*
%TO.C,U16*%
X179843427Y69605153D03*
X179558726Y70667672D03*
X177791081Y70194033D03*
X178075782Y69131514D03*
%TD*%
D27*
%TO.C,U44*%
X214325079Y28708282D03*
X213482430Y28001215D03*
X214658731Y26599354D03*
X215501380Y27306421D03*
%TD*%
D28*
%TO.C,U47*%
X187343822Y79975991D03*
X188377484Y79599769D03*
X189003380Y81319407D03*
X187969718Y81695629D03*
%TD*%
D13*
%TO.C,U18*%
X127099202Y174016786D03*
X126003387Y174112658D03*
X125843892Y172289622D03*
X126939707Y172193750D03*
%TD*%
D29*
%TO.C,U20*%
X186022143Y131471032D03*
X186572143Y132423660D03*
X184987317Y133338660D03*
X184437317Y132386032D03*
%TD*%
D13*
%TO.C,U30*%
X231949152Y-40231133D03*
X230853337Y-40135261D03*
X230693842Y-41958297D03*
X231789657Y-42054169D03*
%TD*%
D30*
%TO.C,U6*%
X156393942Y141301624D03*
X156298070Y140205809D03*
X158121106Y140046314D03*
X158216978Y141142129D03*
%TD*%
D19*
%TO.C,U42*%
X188700036Y92131955D03*
X189795851Y92227827D03*
X189636356Y94050863D03*
X188540541Y93954991D03*
%TD*%
D17*
%TO.C,U23*%
X84950000Y-31286457D03*
X86050000Y-31286457D03*
X86050000Y-29456457D03*
X84950000Y-29456457D03*
%TD*%
D25*
%TO.C,U10*%
X127337027Y156967383D03*
X126241212Y156871511D03*
X126400707Y155048475D03*
X127496522Y155144347D03*
%TD*%
D31*
%TO.C,U19*%
X143170002Y146625091D03*
X143877069Y147467740D03*
X142475208Y148644041D03*
X141768141Y147801392D03*
%TD*%
D32*
%TO.C,U29*%
X177030759Y58913508D03*
X178114047Y59104521D03*
X177796271Y60906720D03*
X176712983Y60715707D03*
%TD*%
D33*
%TO.C,U3*%
X140209021Y145616347D03*
X139501954Y144773698D03*
X140903815Y143597397D03*
X141610882Y144440046D03*
%TD*%
D20*
%TO.C,U17*%
X176366120Y135114177D03*
X175735186Y134213110D03*
X177234234Y133163465D03*
X177865168Y134064532D03*
%TD*%
D34*
%TO.C,U11*%
X181880910Y134357347D03*
X182511844Y135258414D03*
X181012796Y136308059D03*
X180381862Y135406992D03*
%TD*%
D35*
%TO.C,U36*%
X205668119Y39611158D03*
X204767052Y38980224D03*
X205816697Y37481176D03*
X206717764Y38112110D03*
%TD*%
D34*
%TO.C,U4*%
X179283936Y136300763D03*
X179914870Y137201830D03*
X178415822Y138251475D03*
X177784888Y137350408D03*
%TD*%
D17*
%TO.C,U40*%
X182098196Y105173004D03*
X180998196Y105173004D03*
X180998196Y103343004D03*
X182098196Y103343004D03*
%TD*%
%TO.C,U48*%
X84950000Y-34621772D03*
X86050000Y-34621772D03*
X86050000Y-32791772D03*
X84950000Y-32791772D03*
%TD*%
D15*
%TO.C,U2*%
X176547652Y49425137D03*
X175550713Y48960257D03*
X176324104Y47301713D03*
X177321043Y47766593D03*
%TD*%
D36*
%TO.C,U13*%
X169697383Y139952063D03*
X169506370Y138868775D03*
X171308569Y138550999D03*
X171499582Y139634287D03*
%TD*%
D37*
%TO.C,U24*%
X185619380Y82457563D03*
X184585718Y82833785D03*
X183959822Y81114147D03*
X184993484Y80737925D03*
%TD*%
D12*
%TO.C,U38*%
X129416176Y172224706D03*
X130511991Y172128834D03*
X130671486Y173951870D03*
X129575671Y174047742D03*
%TD*%
D17*
%TO.C,U31*%
X84950000Y-28147459D03*
X86050000Y-28147459D03*
X86050000Y-26317459D03*
X84950000Y-26317459D03*
%TD*%
D38*
%TO.C,U7*%
X171716064Y141928692D03*
X171907077Y143011980D03*
X170104878Y143329756D03*
X169913865Y142246468D03*
%TD*%
M02*
