M48
; DRILL file {KiCad 7.0.8} date 2025 August 15, Friday 10:43:06
; FORMAT={-:-/ absolute / inch / decimal}
; #@! TF.CreationDate,2025-08-15T10:43:06-07:00
; #@! TF.GenerationSoftware,Kicad,Pcbnew,7.0.8
; #@! TF.FileFunction,Plated,1,2,PTH
FMAT,2
INCH
; #@! TA.AperFunction,Plated,PTH,ViaDrill
T1C0.0118
; #@! TA.AperFunction,Plated,PTH,ComponentDrill
T2C0.0374
%
G90
G05
T1
X3.4294Y-1.1201
X3.4294Y-1.2424
X3.4294Y-1.3814
X4.1485Y7.0945
X4.2857Y7.3249
X4.8507Y7.0939
X4.919Y6.1728
X4.9632Y6.9009
X5.0385Y7.2679
X5.1365Y6.7245
X5.199Y6.1238
X5.459Y5.6655
X5.698Y5.8383
X6.0997Y5.5239
X6.292Y5.6964
X6.6198Y5.4721
X6.8161Y5.6234
X6.8239Y2.437
X6.8559Y5.2957
X6.9034Y1.9774
X6.9966Y5.1802
X7.0153Y2.2749
X7.0433Y2.5292
X7.0855Y4.192
X7.1004Y2.826
X7.1093Y5.4416
X7.1329Y4.7764
X7.1399Y5.094
X7.1429Y1.968
X7.2075Y5.3713
X7.2414Y3.7288
X7.263Y3.3254
X7.2921Y4.5937
X7.3Y4.0164
X7.3667Y5.2585
X7.4086Y3.0772
X7.4769Y3.5775
X8.0278Y1.5688
X8.2747Y1.5538
X8.3761Y1.1358
X8.6189Y1.1164
X8.8984Y-0.3112
X8.9067Y0.4922
X9.0635Y-0.52
X9.09Y-1.521
X9.1324Y0.3983
X9.2494Y-1.7224
T2
X3.3502Y-1.7993
X3.4486Y-1.7993
X3.547Y-1.7993
T0
M30
