%TF.GenerationSoftware,KiCad,Pcbnew,7.0.8*%
%TF.CreationDate,2025-08-15T10:43:11-07:00*%
%TF.ProjectId,production_red_line,70726f64-7563-4746-996f-6e5f7265645f,rev?*%
%TF.SameCoordinates,Original*%
%TF.FileFunction,Copper,L1,Top*%
%TF.FilePolarity,Positive*%
%FSLAX46Y46*%
G04 Gerber Fmt 4.6, Leading zero omitted, Abs format (unit mm)*
G04 Created by KiCad (PCBNEW 7.0.8) date 2025-08-15 10:43:11*
%MOMM*%
%LPD*%
G01*
G04 APERTURE LIST*
G04 Aperture macros list*
%AMRoundRect*
0 Rectangle with rounded corners*
0 $1 Rounding radius*
0 $2 $3 $4 $5 $6 $7 $8 $9 X,Y pos of 4 corners*
0 Add a 4 corners polygon primitive as box body*
4,1,4,$2,$3,$4,$5,$6,$7,$8,$9,$2,$3,0*
0 Add four circle primitives for the rounded corners*
1,1,$1+$1,$2,$3*
1,1,$1+$1,$4,$5*
1,1,$1+$1,$6,$7*
1,1,$1+$1,$8,$9*
0 Add four rect primitives between the rounded corners*
20,1,$1+$1,$2,$3,$4,$5,0*
20,1,$1+$1,$4,$5,$6,$7,0*
20,1,$1+$1,$6,$7,$8,$9,0*
20,1,$1+$1,$8,$9,$2,$3,0*%
%AMRotRect*
0 Rectangle, with rotation*
0 The origin of the aperture is its center*
0 $1 length*
0 $2 width*
0 $3 Rotation angle, in degrees counterclockwise*
0 Add horizontal line*
21,1,$1,$2,0,0,$3*%
G04 Aperture macros list end*
%TA.AperFunction,SMDPad,CuDef*%
%ADD10RotRect,0.700000X0.700000X355.000000*%
%TD*%
%TA.AperFunction,SMDPad,CuDef*%
%ADD11RotRect,0.700000X0.700000X340.000000*%
%TD*%
%TA.AperFunction,SMDPad,CuDef*%
%ADD12RotRect,0.700000X0.700000X265.000000*%
%TD*%
%TA.AperFunction,SMDPad,CuDef*%
%ADD13RotRect,0.700000X0.700000X85.000000*%
%TD*%
%TA.AperFunction,SMDPad,CuDef*%
%ADD14RotRect,0.700000X0.700000X305.000000*%
%TD*%
%TA.AperFunction,SMDPad,CuDef*%
%ADD15RotRect,0.700000X0.700000X115.000000*%
%TD*%
%TA.AperFunction,SMDPad,CuDef*%
%ADD16RotRect,0.700000X0.700000X100.000000*%
%TD*%
%TA.AperFunction,SMDPad,CuDef*%
%ADD17R,0.700000X0.700000*%
%TD*%
%TA.AperFunction,SMDPad,CuDef*%
%ADD18RotRect,0.700000X0.700000X310.000000*%
%TD*%
%TA.AperFunction,SMDPad,CuDef*%
%ADD19RotRect,0.700000X0.700000X275.000000*%
%TD*%
%TA.AperFunction,SMDPad,CuDef*%
%ADD20RotRect,0.700000X0.700000X145.000000*%
%TD*%
%TA.AperFunction,SMDPad,CuDef*%
%ADD21RotRect,0.700000X0.700000X295.000000*%
%TD*%
%TA.AperFunction,SMDPad,CuDef*%
%ADD22RotRect,0.700000X0.700000X150.000000*%
%TD*%
%TA.AperFunction,SMDPad,CuDef*%
%ADD23RotRect,0.700000X0.700000X160.000000*%
%TD*%
%TA.AperFunction,SMDPad,CuDef*%
%ADD24RotRect,0.700000X0.700000X195.000000*%
%TD*%
%TA.AperFunction,SMDPad,CuDef*%
%ADD25RotRect,0.700000X0.700000X95.000000*%
%TD*%
%TA.AperFunction,SMDPad,CuDef*%
%ADD26RotRect,0.700000X0.700000X15.000000*%
%TD*%
%TA.AperFunction,SMDPad,CuDef*%
%ADD27RotRect,0.700000X0.700000X130.000000*%
%TD*%
%TA.AperFunction,SMDPad,CuDef*%
%ADD28RotRect,0.700000X0.700000X250.000000*%
%TD*%
%TA.AperFunction,SMDPad,CuDef*%
%ADD29RotRect,0.700000X0.700000X330.000000*%
%TD*%
%TA.AperFunction,ComponentPad*%
%ADD30RoundRect,0.250000X0.600000X0.725000X-0.600000X0.725000X-0.600000X-0.725000X0.600000X-0.725000X0*%
%TD*%
%TA.AperFunction,ComponentPad*%
%ADD31O,1.700000X1.950000*%
%TD*%
%TA.AperFunction,SMDPad,CuDef*%
%ADD32RotRect,0.700000X0.700000X175.000000*%
%TD*%
%TA.AperFunction,SMDPad,CuDef*%
%ADD33RotRect,0.700000X0.700000X320.000000*%
%TD*%
%TA.AperFunction,SMDPad,CuDef*%
%ADD34RotRect,0.700000X0.700000X280.000000*%
%TD*%
%TA.AperFunction,SMDPad,CuDef*%
%ADD35RotRect,0.700000X0.700000X140.000000*%
%TD*%
%TA.AperFunction,SMDPad,CuDef*%
%ADD36RotRect,0.700000X0.700000X325.000000*%
%TD*%
%TA.AperFunction,SMDPad,CuDef*%
%ADD37RotRect,0.700000X0.700000X125.000000*%
%TD*%
%TA.AperFunction,SMDPad,CuDef*%
%ADD38RotRect,0.700000X0.700000X170.000000*%
%TD*%
%TA.AperFunction,SMDPad,CuDef*%
%ADD39RotRect,0.700000X0.700000X70.000000*%
%TD*%
%TA.AperFunction,SMDPad,CuDef*%
%ADD40RotRect,0.700000X0.700000X350.000000*%
%TD*%
%TA.AperFunction,ViaPad*%
%ADD41C,0.600000*%
%TD*%
%TA.AperFunction,Conductor*%
%ADD42C,0.200000*%
%TD*%
G04 APERTURE END LIST*
D10*
%TO.P,U14,1,DO*%
%TO.N,Net-(U14-DO)*%
X158440890Y143601723D03*
%TO.P,U14,2,GND*%
%TO.N,GND*%
X158536762Y144697538D03*
%TO.P,U14,3,DI*%
%TO.N,Net-(U14-DI)*%
X156713726Y144857033D03*
%TO.P,U14,4,VDD*%
%TO.N,+5V*%
X156617854Y143761218D03*
%TD*%
D11*
%TO.P,U46,1,DO*%
%TO.N,Net-(U38-DI)*%
X126365134Y183970138D03*
%TO.P,U46,2,GND*%
%TO.N,GND*%
X126741356Y185003800D03*
%TO.P,U46,3,DI*%
%TO.N,Net-(U41-DO)*%
X125021718Y185629696D03*
%TO.P,U46,4,VDD*%
%TO.N,+5V*%
X124645496Y184596034D03*
%TD*%
D12*
%TO.P,U12,1,DO*%
%TO.N,Net-(U12-DO)*%
X229250513Y-11789157D03*
%TO.P,U12,2,GND*%
%TO.N,GND*%
X230346328Y-11885029D03*
%TO.P,U12,3,DI*%
%TO.N,Net-(U12-DI)*%
X230505823Y-10061993D03*
%TO.P,U12,4,VDD*%
%TO.N,+5V*%
X229410008Y-9966121D03*
%TD*%
D13*
%TO.P,U45,1,DO*%
%TO.N,Net-(U37-DI)*%
X182108953Y119940631D03*
%TO.P,U45,2,GND*%
%TO.N,GND*%
X181013138Y120036503D03*
%TO.P,U45,3,DI*%
%TO.N,Net-(U40-DO)*%
X180853643Y118213467D03*
%TO.P,U45,4,VDD*%
%TO.N,+5V*%
X181949458Y118117595D03*
%TD*%
D14*
%TO.P,U15,1,DO*%
%TO.N,Net-(U15-DO)*%
X208598780Y39770599D03*
%TO.P,U15,2,GND*%
%TO.N,GND*%
X209499847Y40401533D03*
%TO.P,U15,3,DI*%
%TO.N,Net-(U15-DI)*%
X208450202Y41900581D03*
%TO.P,U15,4,VDD*%
%TO.N,+5V*%
X207549135Y41269647D03*
%TD*%
D13*
%TO.P,U35,1,DO*%
%TO.N,Net-(U35-DO)*%
X227069832Y-9684174D03*
%TO.P,U35,2,GND*%
%TO.N,GND*%
X225974017Y-9588302D03*
%TO.P,U35,3,DI*%
%TO.N,Net-(U30-DO)*%
X225814522Y-11411338D03*
%TO.P,U35,4,VDD*%
%TO.N,+5V*%
X226910337Y-11507210D03*
%TD*%
D15*
%TO.P,U43,1,DO*%
%TO.N,Net-(U43-DO)*%
X227743421Y11699274D03*
%TO.P,U43,2,GND*%
%TO.N,GND*%
X226746482Y11234394D03*
%TO.P,U43,3,DI*%
%TO.N,Net-(U35-DO)*%
X227519873Y9575850D03*
%TO.P,U43,4,VDD*%
%TO.N,+5V*%
X228516812Y10040730D03*
%TD*%
D16*
%TO.P,U9,1,DO*%
%TO.N,Net-(U16-DI)*%
X174390709Y60541537D03*
%TO.P,U9,2,GND*%
%TO.N,GND*%
X173307421Y60350524D03*
%TO.P,U9,3,DI*%
%TO.N,Net-(U2-DO)*%
X173625197Y58548325D03*
%TO.P,U9,4,VDD*%
%TO.N,+5V*%
X174708485Y58739338D03*
%TD*%
D17*
%TO.P,U34,1,DO*%
%TO.N,Net-(U34-DO)*%
X184369579Y103293425D03*
%TO.P,U34,2,GND*%
%TO.N,GND*%
X185469579Y103293425D03*
%TO.P,U34,3,DI*%
%TO.N,Net-(U28-DO)*%
X185469579Y105123425D03*
%TO.P,U34,4,VDD*%
%TO.N,+5V*%
X184369579Y105123425D03*
%TD*%
D18*
%TO.P,U8,1,DO*%
%TO.N,Net-(U5-DI)*%
X217394262Y28640276D03*
%TO.P,U8,2,GND*%
%TO.N,GND*%
X218236911Y29347343D03*
%TO.P,U8,3,DI*%
%TO.N,Net-(U15-DO)*%
X217060610Y30749204D03*
%TO.P,U8,4,VDD*%
%TO.N,+5V*%
X216217961Y30042137D03*
%TD*%
D19*
%TO.P,U27,1,DO*%
%TO.N,Net-(U19-DI)*%
X129670271Y155508258D03*
%TO.P,U27,2,GND*%
%TO.N,GND*%
X130766086Y155604130D03*
%TO.P,U27,3,DI*%
%TO.N,Net-(U27-DI)*%
X130606591Y157427166D03*
%TO.P,U27,4,VDD*%
%TO.N,+5V*%
X129510776Y157331294D03*
%TD*%
D20*
%TO.P,U25,1,DO*%
%TO.N,Net-(U17-DI)*%
X179214078Y133547236D03*
%TO.P,U25,2,GND*%
%TO.N,GND*%
X178583144Y132646169D03*
%TO.P,U25,3,DI*%
%TO.N,Net-(U25-DI)*%
X180082192Y131596524D03*
%TO.P,U25,4,VDD*%
%TO.N,+5V*%
X180713126Y132497591D03*
%TD*%
D21*
%TO.P,U5,1,DO*%
%TO.N,Net-(U12-DI)*%
X230541267Y11010051D03*
%TO.P,U5,2,GND*%
%TO.N,GND*%
X231538206Y11474931D03*
%TO.P,U5,3,DI*%
%TO.N,Net-(U5-DI)*%
X230764815Y13133475D03*
%TO.P,U5,4,VDD*%
%TO.N,+5V*%
X229767876Y12668595D03*
%TD*%
D17*
%TO.P,U41,1,DO*%
%TO.N,Net-(U41-DO)*%
X108884663Y183550673D03*
%TO.P,U41,2,GND*%
%TO.N,GND*%
X108884663Y184650673D03*
%TO.P,U41,3,DI*%
%TO.N,Net-(U33-DO)*%
X107054663Y184650673D03*
%TO.P,U41,4,VDD*%
%TO.N,+5V*%
X107054663Y183550673D03*
%TD*%
%TO.P,U33,1,DO*%
%TO.N,Net-(U33-DO)*%
X107026718Y181353193D03*
%TO.P,U33,2,GND*%
%TO.N,GND*%
X107026718Y180253193D03*
%TO.P,U33,3,DI*%
%TO.N,Net-(U26-DO)*%
X108856718Y180253193D03*
%TO.P,U33,4,VDD*%
%TO.N,+5V*%
X108856718Y181353193D03*
%TD*%
D22*
%TO.P,U37,1,DO*%
%TO.N,Net-(U25-DI)*%
X183351184Y130290298D03*
%TO.P,U37,2,GND*%
%TO.N,GND*%
X182801184Y129337670D03*
%TO.P,U37,3,DI*%
%TO.N,Net-(U37-DI)*%
X184386010Y128422670D03*
%TO.P,U37,4,VDD*%
%TO.N,+5V*%
X184936010Y129375298D03*
%TD*%
D12*
%TO.P,U22,1,DO*%
%TO.N,Net-(U22-DO)*%
X233929846Y-42327883D03*
%TO.P,U22,2,GND*%
%TO.N,GND*%
X235025661Y-42423755D03*
%TO.P,U22,3,DI*%
%TO.N,Net-(U12-DO)*%
X235185156Y-40600719D03*
%TO.P,U22,4,VDD*%
%TO.N,+5V*%
X234089341Y-40504847D03*
%TD*%
D23*
%TO.P,U26,1,DO*%
%TO.N,Net-(U26-DO)*%
X124028647Y182303978D03*
%TO.P,U26,2,GND*%
%TO.N,GND*%
X123652425Y181270316D03*
%TO.P,U26,3,DI*%
%TO.N,Net-(U18-DO)*%
X125372063Y180644420D03*
%TO.P,U26,4,VDD*%
%TO.N,+5V*%
X125748285Y181678082D03*
%TD*%
D24*
%TO.P,U39,1,DO*%
%TO.N,Net-(U29-DI)*%
X178661934Y66884793D03*
%TO.P,U39,2,GND*%
%TO.N,GND*%
X178946635Y65822274D03*
%TO.P,U39,3,DI*%
%TO.N,Net-(U39-DI)*%
X180714280Y66295913D03*
%TO.P,U39,4,VDD*%
%TO.N,+5V*%
X180429579Y67358432D03*
%TD*%
D12*
%TO.P,U28,1,DO*%
%TO.N,Net-(U28-DO)*%
X184125868Y118064730D03*
%TO.P,U28,2,GND*%
%TO.N,GND*%
X185221683Y117968858D03*
%TO.P,U28,3,DI*%
%TO.N,Net-(U20-DO)*%
X185381178Y119791894D03*
%TO.P,U28,4,VDD*%
%TO.N,+5V*%
X184285363Y119887766D03*
%TD*%
D21*
%TO.P,U21,1,DO*%
%TO.N,Net-(U15-DI)*%
X179353033Y48927730D03*
%TO.P,U21,2,GND*%
%TO.N,GND*%
X180349972Y49392610D03*
%TO.P,U21,3,DI*%
%TO.N,Net-(U21-DI)*%
X179576581Y51051154D03*
%TO.P,U21,4,VDD*%
%TO.N,+5V*%
X178579642Y50586274D03*
%TD*%
D25*
%TO.P,U32,1,DO*%
%TO.N,Net-(U32-DO)*%
X186126014Y93719866D03*
%TO.P,U32,2,GND*%
%TO.N,GND*%
X185030199Y93623994D03*
%TO.P,U32,3,DI*%
%TO.N,Net-(U24-DO)*%
X185189694Y91800958D03*
%TO.P,U32,4,VDD*%
%TO.N,+5V*%
X186285509Y91896830D03*
%TD*%
D26*
%TO.P,U16,1,DO*%
%TO.N,Net-(U16-DO)*%
X179843427Y69605153D03*
%TO.P,U16,2,GND*%
%TO.N,GND*%
X179558726Y70667672D03*
%TO.P,U16,3,DI*%
%TO.N,Net-(U16-DI)*%
X177791081Y70194033D03*
%TO.P,U16,4,VDD*%
%TO.N,+5V*%
X178075782Y69131514D03*
%TD*%
D27*
%TO.P,U44,1,DO*%
%TO.N,Net-(U36-DI)*%
X214325079Y28708282D03*
%TO.P,U44,2,GND*%
%TO.N,GND*%
X213482430Y28001215D03*
%TO.P,U44,3,DI*%
%TO.N,Net-(U43-DO)*%
X214658731Y26599354D03*
%TO.P,U44,4,VDD*%
%TO.N,+5V*%
X215501380Y27306421D03*
%TD*%
D28*
%TO.P,U47,1,DO*%
%TO.N,Net-(U39-DI)*%
X187343822Y79975991D03*
%TO.P,U47,2,GND*%
%TO.N,GND*%
X188377484Y79599769D03*
%TO.P,U47,3,DI*%
%TO.N,Net-(U42-DO)*%
X189003380Y81319407D03*
%TO.P,U47,4,VDD*%
%TO.N,+5V*%
X187969718Y81695629D03*
%TD*%
D13*
%TO.P,U18,1,DO*%
%TO.N,Net-(U18-DO)*%
X127099202Y174016786D03*
%TO.P,U18,2,GND*%
%TO.N,GND*%
X126003387Y174112658D03*
%TO.P,U18,3,DI*%
%TO.N,Net-(U10-DO)*%
X125843892Y172289622D03*
%TO.P,U18,4,VDD*%
%TO.N,+5V*%
X126939707Y172193750D03*
%TD*%
D29*
%TO.P,U20,1,DO*%
%TO.N,Net-(U20-DO)*%
X186022143Y131471032D03*
%TO.P,U20,2,GND*%
%TO.N,GND*%
X186572143Y132423660D03*
%TO.P,U20,3,DI*%
%TO.N,Net-(U11-DO)*%
X184987317Y133338660D03*
%TO.P,U20,4,VDD*%
%TO.N,+5V*%
X184437317Y132386032D03*
%TD*%
D30*
%TO.P,J4,1,Pin_1*%
%TO.N,GND*%
X90094566Y-45702563D03*
D31*
%TO.P,J4,2,Pin_2*%
%TO.N,Net-(J4-Pin_2)*%
X87594566Y-45702563D03*
%TO.P,J4,3,Pin_3*%
%TO.N,+5V*%
X85094566Y-45702563D03*
%TD*%
D13*
%TO.P,U30,1,DO*%
%TO.N,Net-(U30-DO)*%
X231949152Y-40231133D03*
%TO.P,U30,2,GND*%
%TO.N,GND*%
X230853337Y-40135261D03*
%TO.P,U30,3,DI*%
%TO.N,Net-(U22-DO)*%
X230693842Y-41958297D03*
%TO.P,U30,4,VDD*%
%TO.N,+5V*%
X231789657Y-42054169D03*
%TD*%
D32*
%TO.P,U6,1,DO*%
%TO.N,Net-(U3-DI)*%
X156393942Y141301624D03*
%TO.P,U6,2,GND*%
%TO.N,GND*%
X156298070Y140205809D03*
%TO.P,U6,3,DI*%
%TO.N,Net-(U13-DO)*%
X158121106Y140046314D03*
%TO.P,U6,4,VDD*%
%TO.N,+5V*%
X158216978Y141142129D03*
%TD*%
D19*
%TO.P,U42,1,DO*%
%TO.N,Net-(U42-DO)*%
X188700036Y92131955D03*
%TO.P,U42,2,GND*%
%TO.N,GND*%
X189795851Y92227827D03*
%TO.P,U42,3,DI*%
%TO.N,Net-(U34-DO)*%
X189636356Y94050863D03*
%TO.P,U42,4,VDD*%
%TO.N,+5V*%
X188540541Y93954991D03*
%TD*%
D17*
%TO.P,U23,1,DO*%
%TO.N,Net-(U23-DO)*%
X84950000Y-31286457D03*
%TO.P,U23,2,GND*%
%TO.N,GND*%
X86050000Y-31286457D03*
%TO.P,U23,3,DI*%
%TO.N,Net-(U23-DI)*%
X86050000Y-29456457D03*
%TO.P,U23,4,VDD*%
%TO.N,+5V*%
X84950000Y-29456457D03*
%TD*%
D25*
%TO.P,U10,1,DO*%
%TO.N,Net-(U10-DO)*%
X127337027Y156967383D03*
%TO.P,U10,2,GND*%
%TO.N,GND*%
X126241212Y156871511D03*
%TO.P,U10,3,DI*%
%TO.N,Net-(U10-DI)*%
X126400707Y155048475D03*
%TO.P,U10,4,VDD*%
%TO.N,+5V*%
X127496522Y155144347D03*
%TD*%
D33*
%TO.P,U19,1,DO*%
%TO.N,Net-(U14-DI)*%
X143170002Y146625091D03*
%TO.P,U19,2,GND*%
%TO.N,GND*%
X143877069Y147467740D03*
%TO.P,U19,3,DI*%
%TO.N,Net-(U19-DI)*%
X142475208Y148644041D03*
%TO.P,U19,4,VDD*%
%TO.N,+5V*%
X141768141Y147801392D03*
%TD*%
D34*
%TO.P,U29,1,DO*%
%TO.N,Net-(U21-DI)*%
X177030759Y58913508D03*
%TO.P,U29,2,GND*%
%TO.N,GND*%
X178114047Y59104521D03*
%TO.P,U29,3,DI*%
%TO.N,Net-(U29-DI)*%
X177796271Y60906720D03*
%TO.P,U29,4,VDD*%
%TO.N,+5V*%
X176712983Y60715707D03*
%TD*%
D35*
%TO.P,U3,1,DO*%
%TO.N,Net-(U10-DI)*%
X140209021Y145616347D03*
%TO.P,U3,2,GND*%
%TO.N,GND*%
X139501954Y144773698D03*
%TO.P,U3,3,DI*%
%TO.N,Net-(U3-DI)*%
X140903815Y143597397D03*
%TO.P,U3,4,VDD*%
%TO.N,+5V*%
X141610882Y144440046D03*
%TD*%
D20*
%TO.P,U17,1,DO*%
%TO.N,Net-(U13-DI)*%
X176366120Y135114177D03*
%TO.P,U17,2,GND*%
%TO.N,GND*%
X175735186Y134213110D03*
%TO.P,U17,3,DI*%
%TO.N,Net-(U17-DI)*%
X177234234Y133163465D03*
%TO.P,U17,4,VDD*%
%TO.N,+5V*%
X177865168Y134064532D03*
%TD*%
D36*
%TO.P,U11,1,DO*%
%TO.N,Net-(U11-DO)*%
X181880910Y134357347D03*
%TO.P,U11,2,GND*%
%TO.N,GND*%
X182511844Y135258414D03*
%TO.P,U11,3,DI*%
%TO.N,Net-(U11-DI)*%
X181012796Y136308059D03*
%TO.P,U11,4,VDD*%
%TO.N,+5V*%
X180381862Y135406992D03*
%TD*%
D37*
%TO.P,U36,1,DO*%
%TO.N,Net-(U31-DI)*%
X205668119Y39611158D03*
%TO.P,U36,2,GND*%
%TO.N,GND*%
X204767052Y38980224D03*
%TO.P,U36,3,DI*%
%TO.N,Net-(U36-DI)*%
X205816697Y37481176D03*
%TO.P,U36,4,VDD*%
%TO.N,+5V*%
X206717764Y38112110D03*
%TD*%
D36*
%TO.P,U4,1,DO*%
%TO.N,Net-(U11-DI)*%
X179283936Y136300763D03*
%TO.P,U4,2,GND*%
%TO.N,GND*%
X179914870Y137201830D03*
%TO.P,U4,3,DI*%
%TO.N,Net-(U4-DI)*%
X178415822Y138251475D03*
%TO.P,U4,4,VDD*%
%TO.N,+5V*%
X177784888Y137350408D03*
%TD*%
D17*
%TO.P,U40,1,DO*%
%TO.N,Net-(U40-DO)*%
X182098196Y105173004D03*
%TO.P,U40,2,GND*%
%TO.N,GND*%
X180998196Y105173004D03*
%TO.P,U40,3,DI*%
%TO.N,Net-(U32-DO)*%
X180998196Y103343004D03*
%TO.P,U40,4,VDD*%
%TO.N,+5V*%
X182098196Y103343004D03*
%TD*%
%TO.P,U48,1,DO*%
%TO.N,unconnected-(U48-DO-Pad1)*%
X84950000Y-34621772D03*
%TO.P,U48,2,GND*%
%TO.N,GND*%
X86050000Y-34621772D03*
%TO.P,U48,3,DI*%
%TO.N,Net-(U23-DO)*%
X86050000Y-32791772D03*
%TO.P,U48,4,VDD*%
%TO.N,+5V*%
X84950000Y-32791772D03*
%TD*%
D15*
%TO.P,U2,1,DO*%
%TO.N,Net-(U2-DO)*%
X176547652Y49425137D03*
%TO.P,U2,2,GND*%
%TO.N,GND*%
X175550713Y48960257D03*
%TO.P,U2,3,DI*%
%TO.N,Net-(J4-Pin_2)*%
X176324104Y47301713D03*
%TO.P,U2,4,VDD*%
%TO.N,+5V*%
X177321043Y47766593D03*
%TD*%
D38*
%TO.P,U13,1,DO*%
%TO.N,Net-(U13-DO)*%
X169697383Y139952063D03*
%TO.P,U13,2,GND*%
%TO.N,GND*%
X169506370Y138868775D03*
%TO.P,U13,3,DI*%
%TO.N,Net-(U13-DI)*%
X171308569Y138550999D03*
%TO.P,U13,4,VDD*%
%TO.N,+5V*%
X171499582Y139634287D03*
%TD*%
D39*
%TO.P,U24,1,DO*%
%TO.N,Net-(U24-DO)*%
X185619380Y82457563D03*
%TO.P,U24,2,GND*%
%TO.N,GND*%
X184585718Y82833785D03*
%TO.P,U24,3,DI*%
%TO.N,Net-(U16-DO)*%
X183959822Y81114147D03*
%TO.P,U24,4,VDD*%
%TO.N,+5V*%
X184993484Y80737925D03*
%TD*%
D12*
%TO.P,U38,1,DO*%
%TO.N,Net-(U27-DI)*%
X129416176Y172224706D03*
%TO.P,U38,2,GND*%
%TO.N,GND*%
X130511991Y172128834D03*
%TO.P,U38,3,DI*%
%TO.N,Net-(U38-DI)*%
X130671486Y173951870D03*
%TO.P,U38,4,VDD*%
%TO.N,+5V*%
X129575671Y174047742D03*
%TD*%
D17*
%TO.P,U31,1,DO*%
%TO.N,Net-(U23-DI)*%
X84950000Y-28147459D03*
%TO.P,U31,2,GND*%
%TO.N,GND*%
X86050000Y-28147459D03*
%TO.P,U31,3,DI*%
%TO.N,Net-(U31-DI)*%
X86050000Y-26317459D03*
%TO.P,U31,4,VDD*%
%TO.N,+5V*%
X84950000Y-26317459D03*
%TD*%
D40*
%TO.P,U7,1,DO*%
%TO.N,Net-(U4-DI)*%
X171716064Y141928692D03*
%TO.P,U7,2,GND*%
%TO.N,GND*%
X171907077Y143011980D03*
%TO.P,U7,3,DI*%
%TO.N,Net-(U14-DO)*%
X170104878Y143329756D03*
%TO.P,U7,4,VDD*%
%TO.N,+5V*%
X169913865Y142246468D03*
%TD*%
D41*
%TO.N,GND*%
X154931250Y140306605D03*
X183071022Y136431068D03*
X132054028Y155544999D03*
X210178309Y39466061D03*
X130467375Y170802416D03*
X183932449Y94710860D03*
X174140436Y134510149D03*
X159817798Y144687648D03*
X189912516Y90869120D03*
X181429247Y49986855D03*
X231962225Y10117776D03*
X173129426Y142834130D03*
X181352305Y129387700D03*
X105371128Y180200099D03*
X185420000Y102017004D03*
X187115061Y133566540D03*
X124943442Y156789692D03*
X177712670Y131578221D03*
X144728644Y148291596D03*
X226230256Y12501367D03*
X173326311Y61900277D03*
X126064419Y175282219D03*
X108856397Y186052352D03*
X181176493Y121321644D03*
X180349005Y71781376D03*
X184480688Y84466367D03*
X180577198Y138217185D03*
X175345403Y50225958D03*
X218919083Y28355523D03*
X226019215Y-7905485D03*
X185218146Y116678753D03*
X212753797Y28848110D03*
X230887044Y-38634017D03*
X127977335Y184604318D03*
X178188072Y57782391D03*
X138659411Y143903074D03*
X234934333Y-43749341D03*
X168141778Y138992293D03*
X230213303Y-13207350D03*
X87105791Y-28450124D03*
X178899292Y64242867D03*
X123208516Y180185751D03*
X188177456Y78160114D03*
X179971390Y106477261D03*
X87105791Y-31557587D03*
X87105791Y-35087665D03*
X203907008Y39847076D03*
%TD*%
D42*
%TO.N,GND*%
X130467375Y172524787D02*
X130467375Y170802416D01*
X185218146Y116678753D02*
X185218146Y117965321D01*
X180349972Y49392610D02*
X180835002Y49392610D01*
X182801184Y129337670D02*
X181402335Y129337670D01*
X226746482Y11234394D02*
X226746482Y11985141D01*
X178583144Y132448695D02*
X177712670Y131578221D01*
X139501954Y144745617D02*
X138659411Y143903074D01*
X226746482Y11985141D02*
X226230256Y12501367D01*
X185218146Y117965321D02*
X185221683Y117968858D01*
X139501954Y144773698D02*
X139501954Y144745617D01*
X235025661Y-43658013D02*
X234934333Y-43749341D01*
X209499847Y40401533D02*
X209499847Y40144523D01*
X179914870Y137554857D02*
X180577198Y138217185D01*
X186572143Y133023622D02*
X187115061Y133566540D01*
X173307421Y60350524D02*
X173307421Y61881387D01*
X230853337Y-40135261D02*
X230853337Y-38667724D01*
X86803126Y-28147459D02*
X87105791Y-28450124D01*
X180998196Y105450455D02*
X179971390Y106477261D01*
X143904788Y147467740D02*
X144728644Y148291596D01*
X188177456Y78160114D02*
X188177456Y79399741D01*
X230346328Y-11885029D02*
X230346328Y-13074325D01*
X184585718Y82833785D02*
X184585718Y84361337D01*
X230346328Y-13074325D02*
X230213303Y-13207350D01*
X155032046Y140205809D02*
X154931250Y140306605D01*
X172951576Y143011980D02*
X173129426Y142834130D01*
X185030199Y93623994D02*
X185019315Y93623994D01*
X181013138Y121158289D02*
X181176493Y121321644D01*
X181013138Y120036503D02*
X181013138Y121158289D01*
X189912516Y90869120D02*
X189912516Y92111162D01*
X143877069Y147467740D02*
X143904788Y147467740D01*
X213482430Y28119477D02*
X212753797Y28848110D01*
X185019315Y93623994D02*
X183932449Y94710860D01*
X179914870Y137201830D02*
X179914870Y137554857D01*
X230853337Y-38667724D02*
X230887044Y-38634017D01*
X185469579Y102066583D02*
X185420000Y102017004D01*
X130766086Y155604130D02*
X131994897Y155604130D01*
X179558726Y70667672D02*
X179558726Y70991097D01*
X181402335Y129337670D02*
X181352305Y129387700D01*
X179558726Y70991097D02*
X180349005Y71781376D01*
X107026718Y180253193D02*
X105424222Y180253193D01*
X209499847Y40144523D02*
X210178309Y39466061D01*
X173307421Y61881387D02*
X173326311Y61900277D01*
X86639898Y-34621772D02*
X87105791Y-35087665D01*
X127577853Y185003800D02*
X127977335Y184604318D01*
X188177456Y79399741D02*
X188377484Y79599769D01*
X231538206Y11474931D02*
X231538206Y10541795D01*
X175735186Y134213110D02*
X174437475Y134213110D01*
X123652425Y181270316D02*
X123652425Y180629660D01*
X159807908Y144697538D02*
X159817798Y144687648D01*
X225974017Y-7950683D02*
X226019215Y-7905485D01*
X178114047Y57856416D02*
X178188072Y57782391D01*
X175550713Y48960257D02*
X175550713Y50020648D01*
X178583144Y132646169D02*
X178583144Y132448695D01*
X168265296Y138868775D02*
X168141778Y138992293D01*
X125025261Y156871511D02*
X124943442Y156789692D01*
X180835002Y49392610D02*
X181429247Y49986855D01*
X235025661Y-42423755D02*
X235025661Y-43658013D01*
X126003387Y174112658D02*
X126003387Y175221187D01*
X182511844Y135871890D02*
X183071022Y136431068D01*
X174437475Y134213110D02*
X174140436Y134510149D01*
X182511844Y135258414D02*
X182511844Y135871890D01*
X158536762Y144697538D02*
X159807908Y144697538D01*
X130511991Y172128834D02*
X130511991Y172480171D01*
X204767052Y38987032D02*
X203907008Y39847076D01*
X105424222Y180253193D02*
X105371128Y180200099D01*
X86050000Y-28147459D02*
X86803126Y-28147459D01*
X185469579Y103293425D02*
X185469579Y102066583D01*
X86050000Y-34621772D02*
X86639898Y-34621772D01*
X86834661Y-31286457D02*
X87105791Y-31557587D01*
X123652425Y180629660D02*
X123208516Y180185751D01*
X204767052Y38980224D02*
X204767052Y38987032D01*
X225974017Y-9588302D02*
X225974017Y-7950683D01*
X169506370Y138868775D02*
X168265296Y138868775D01*
X189912516Y92111162D02*
X189795851Y92227827D01*
X126003387Y175221187D02*
X126064419Y175282219D01*
X108884663Y186024086D02*
X108856397Y186052352D01*
X218236911Y29347343D02*
X218236911Y29037695D01*
X184585718Y84361337D02*
X184480688Y84466367D01*
X130511991Y172480171D02*
X130467375Y172524787D01*
X213482430Y28001215D02*
X213482430Y28119477D01*
X108884663Y184650673D02*
X108884663Y186024086D01*
X186572143Y132423660D02*
X186572143Y133023622D01*
X131994897Y155604130D02*
X132054028Y155544999D01*
X156298070Y140205809D02*
X155032046Y140205809D01*
X86050000Y-31286457D02*
X86834661Y-31286457D01*
X178946635Y64290210D02*
X178899292Y64242867D01*
X231538206Y10541795D02*
X231962225Y10117776D01*
X126241212Y156871511D02*
X125025261Y156871511D01*
X178946635Y65822274D02*
X178946635Y64290210D01*
X178114047Y59104521D02*
X178114047Y57856416D01*
X171907077Y143011980D02*
X172951576Y143011980D01*
X180998196Y105173004D02*
X180998196Y105450455D01*
X218236911Y29037695D02*
X218919083Y28355523D01*
X175550713Y50020648D02*
X175345403Y50225958D01*
X126741356Y185003800D02*
X127577853Y185003800D01*
%TO.N,Net-(U2-DO)*%
X176547652Y49425137D02*
X176547652Y52052348D01*
X176547652Y52052348D02*
X173625197Y54974803D01*
X173625197Y54974803D02*
X173625197Y58548325D01*
%TO.N,Net-(U10-DI)*%
X135832835Y145616347D02*
X126400707Y155048475D01*
X140209021Y145616347D02*
X135832835Y145616347D01*
%TO.N,Net-(U3-DI)*%
X156393942Y141301624D02*
X143199588Y141301624D01*
X143199588Y141301624D02*
X140903815Y143597397D01*
%TO.N,Net-(U11-DI)*%
X181005500Y136300763D02*
X181012796Y136308059D01*
X179283936Y136300763D02*
X181005500Y136300763D01*
%TO.N,Net-(U4-DI)*%
X171716064Y141928692D02*
X174738605Y141928692D01*
X174738605Y141928692D02*
X178415822Y138251475D01*
%TO.N,Net-(U12-DI)*%
X230541267Y11010051D02*
X230541267Y10758733D01*
X231140000Y-9427816D02*
X230505823Y-10061993D01*
X231140000Y10160000D02*
X231140000Y-9427816D01*
X230541267Y10758733D02*
X231140000Y10160000D01*
%TO.N,Net-(U5-DI)*%
X217768869Y28640276D02*
X230764815Y15644330D01*
X230764815Y15644330D02*
X230764815Y13133475D01*
X217394262Y28640276D02*
X217768869Y28640276D01*
%TO.N,Net-(U13-DO)*%
X158215357Y139952063D02*
X158121106Y140046314D01*
X169697383Y139952063D02*
X158215357Y139952063D01*
%TO.N,Net-(U14-DO)*%
X169832911Y143601723D02*
X170104878Y143329756D01*
X158440890Y143601723D02*
X169832911Y143601723D01*
%TO.N,Net-(U15-DO)*%
X208598780Y39211034D02*
X217060610Y30749204D01*
X208598780Y39770599D02*
X208598780Y39211034D01*
%TO.N,Net-(U16-DI)*%
X174390709Y68150887D02*
X176118581Y69878759D01*
X177475807Y69878759D02*
X176118581Y69878759D01*
X174390709Y60541537D02*
X174390709Y68150887D01*
X177791081Y70194033D02*
X177475807Y69878759D01*
%TO.N,Net-(U10-DO)*%
X127337027Y156967383D02*
X125843892Y158460518D01*
X125843892Y158460518D02*
X125843892Y172289622D01*
%TO.N,Net-(U11-DO)*%
X183968630Y134357347D02*
X184987317Y133338660D01*
X181880910Y134357347D02*
X183968630Y134357347D01*
%TO.N,Net-(U12-DO)*%
X229250513Y-11789157D02*
X229250513Y-15890513D01*
X229250513Y-15890513D02*
X236220000Y-22860000D01*
X236220000Y-35560000D02*
X235185156Y-36594844D01*
X235185156Y-36594844D02*
X235185156Y-40600719D01*
X236220000Y-22860000D02*
X236220000Y-35560000D01*
%TO.N,Net-(U13-DI)*%
X176366120Y135114177D02*
X174745391Y135114177D01*
X174745391Y135114177D02*
X171308569Y138550999D01*
%TO.N,Net-(U14-DI)*%
X150554909Y146625091D02*
X152400000Y144780000D01*
X152400000Y144780000D02*
X152477033Y144857033D01*
X152477033Y144857033D02*
X156713726Y144857033D01*
X143170002Y146625091D02*
X150554909Y146625091D01*
%TO.N,Net-(U15-DI)*%
X179353033Y48927730D02*
X179653277Y48627486D01*
X201723297Y48627486D02*
X208450202Y41900581D01*
X179653277Y48627486D02*
X201723297Y48627486D01*
%TO.N,Net-(U16-DO)*%
X183959822Y73721548D02*
X183959822Y81114147D01*
X179843427Y69605153D02*
X183959822Y73721548D01*
%TO.N,Net-(U17-DI)*%
X177234234Y132645766D02*
X177234234Y133163465D01*
X179214078Y133547236D02*
X178345542Y133547236D01*
X178345542Y133547236D02*
X177444072Y132645766D01*
X177444072Y132645766D02*
X177234234Y132645766D01*
%TO.N,Net-(U18-DO)*%
X127099202Y178917281D02*
X125372063Y180644420D01*
X127099202Y174016786D02*
X127099202Y178917281D01*
%TO.N,Net-(U19-DI)*%
X136534488Y148644041D02*
X142475208Y148644041D01*
X129670271Y155508258D02*
X136534488Y148644041D01*
%TO.N,Net-(U20-DO)*%
X186022143Y131471032D02*
X187960000Y129533175D01*
X187960000Y129533175D02*
X187960000Y122370716D01*
X187960000Y122370716D02*
X185381178Y119791894D01*
%TO.N,Net-(U21-DI)*%
X177800000Y57321934D02*
X177800000Y55995279D01*
X177588072Y57533862D02*
X177800000Y57321934D01*
X177588072Y58030920D02*
X177588072Y57533862D01*
X177800000Y55995279D02*
X179576581Y54218698D01*
X177714047Y58156895D02*
X177588072Y58030920D01*
X179576581Y54218698D02*
X179576581Y51051154D01*
X177030759Y58913508D02*
X177714047Y58230220D01*
X177714047Y58230220D02*
X177714047Y58156895D01*
%TO.N,Net-(U22-DO)*%
X230693842Y-45273842D02*
X230693842Y-41958297D01*
X233929846Y-45470154D02*
X233680000Y-45720000D01*
X233680000Y-45720000D02*
X231140000Y-45720000D01*
X233929846Y-42327883D02*
X233929846Y-45470154D01*
X231140000Y-45720000D02*
X230693842Y-45273842D01*
%TO.N,Net-(U23-DO)*%
X86050000Y-32791772D02*
X86050000Y-32410721D01*
X86050000Y-32410721D02*
X84950000Y-31310721D01*
X84950000Y-31310721D02*
X84950000Y-31286457D01*
%TO.N,Net-(U23-DI)*%
X86050000Y-29456457D02*
X86050000Y-29432193D01*
X84950000Y-28332193D02*
X84950000Y-28147459D01*
X86050000Y-29432193D02*
X84950000Y-28332193D01*
%TO.N,Net-(U24-DO)*%
X185619380Y82457563D02*
X185619380Y91371272D01*
X185619380Y91371272D02*
X185189694Y91800958D01*
%TO.N,Net-(U25-DI)*%
X183351184Y130290298D02*
X181388418Y130290298D01*
X181388418Y130290298D02*
X180082192Y131596524D01*
%TO.N,Net-(U26-DO)*%
X124028647Y182303978D02*
X123604039Y182303978D01*
X121553254Y180253193D02*
X108856718Y180253193D01*
X123604039Y182303978D02*
X121553254Y180253193D01*
%TO.N,Net-(U27-DI)*%
X129416176Y158617581D02*
X130606591Y157427166D01*
X129416176Y172224706D02*
X129416176Y158617581D01*
%TO.N,Net-(U28-DO)*%
X184125868Y118064730D02*
X184125868Y107974132D01*
X185469579Y106630421D02*
X185469579Y105123425D01*
X184125868Y107974132D02*
X185469579Y106630421D01*
%TO.N,Net-(U29-DI)*%
X178661934Y66884793D02*
X177796271Y66019130D01*
X177796271Y66019130D02*
X177796271Y60906720D01*
%TO.N,Net-(U30-DO)*%
X225814522Y-17534522D02*
X225814522Y-11411338D01*
X231949152Y-40231133D02*
X231949152Y-23669152D01*
X231949152Y-23669152D02*
X225814522Y-17534522D01*
%TO.N,Net-(U31-DI)*%
X139700000Y-7620000D02*
X172720000Y25400000D01*
X86050000Y-26317459D02*
X104747459Y-7620000D01*
X187960000Y25400000D02*
X203200000Y40640000D01*
X104747459Y-7620000D02*
X139700000Y-7620000D01*
X203200000Y40640000D02*
X204639277Y40640000D01*
X204639277Y40640000D02*
X205668119Y39611158D01*
X172720000Y25400000D02*
X187960000Y25400000D01*
%TO.N,Net-(U32-DO)*%
X180998196Y98847684D02*
X180998196Y103343004D01*
X186126014Y93719866D02*
X180998196Y98847684D01*
%TO.N,Net-(U33-DO)*%
X105666807Y181353193D02*
X104140000Y182880000D01*
X107026718Y181353193D02*
X105666807Y181353193D01*
X105910673Y184650673D02*
X107054663Y184650673D01*
X104140000Y182880000D02*
X105910673Y184650673D01*
%TO.N,Net-(U34-DO)*%
X184369579Y100110421D02*
X189636356Y94843644D01*
X189636356Y94843644D02*
X189636356Y94050863D01*
X184369579Y103293425D02*
X184369579Y100110421D01*
%TO.N,Net-(U35-DO)*%
X227069832Y9125809D02*
X227519873Y9575850D01*
X227069832Y-9684174D02*
X227069832Y9125809D01*
%TO.N,Net-(U36-DI)*%
X205816697Y37216664D02*
X205816697Y37481176D01*
X214325079Y28708282D02*
X205816697Y37216664D01*
%TO.N,Net-(U37-DI)*%
X182108953Y119940631D02*
X182108953Y126145613D01*
X182108953Y126145613D02*
X184386010Y128422670D01*
%TO.N,Net-(U38-DI)*%
X130671486Y181652098D02*
X130671486Y173951870D01*
X128353446Y183970138D02*
X130671486Y181652098D01*
X126365134Y183970138D02*
X128353446Y183970138D01*
%TO.N,Net-(U39-DI)*%
X187343822Y79975991D02*
X187343822Y72925455D01*
X187343822Y72925455D02*
X180714280Y66295913D01*
%TO.N,Net-(U40-DO)*%
X180853643Y106441821D02*
X182098196Y105197268D01*
X182098196Y105197268D02*
X182098196Y105173004D01*
X180853643Y118213467D02*
X180853643Y106441821D01*
%TO.N,Net-(U41-DO)*%
X111313686Y185629696D02*
X125021718Y185629696D01*
X109234663Y183550673D02*
X111313686Y185629696D01*
X108884663Y183550673D02*
X109234663Y183550673D01*
%TO.N,Net-(U42-DO)*%
X188700036Y92131955D02*
X189003380Y91828611D01*
X189003380Y91828611D02*
X189003380Y81319407D01*
%TO.N,Net-(U43-DO)*%
X227743421Y11699274D02*
X227743421Y13514664D01*
X227743421Y13514664D02*
X214658731Y26599354D01*
%TO.N,Net-(J4-Pin_2)*%
X81280000Y-45720000D02*
X81280000Y-25400000D01*
X132080000Y2540000D02*
X176324104Y46784104D01*
X87594566Y-45702563D02*
X85037129Y-48260000D01*
X81280000Y-25400000D02*
X109220000Y2540000D01*
X85037129Y-48260000D02*
X83820000Y-48260000D01*
X83820000Y-48260000D02*
X81280000Y-45720000D01*
X109220000Y2540000D02*
X132080000Y2540000D01*
X176324104Y46784104D02*
X176324104Y47301713D01*
%TD*%
%TA.AperFunction,Conductor*%
%TO.N,+5V*%
G36*
X124206890Y185021717D02*
G01*
X124349610Y184969770D01*
X124355658Y184967198D01*
X124356896Y184966591D01*
X124356953Y184966567D01*
X124849231Y184787393D01*
X124905495Y184745967D01*
X124930430Y184680698D01*
X124923342Y184628461D01*
X124807795Y184310996D01*
X124589701Y183711790D01*
X124589701Y183711789D01*
X124728610Y183661231D01*
X124786764Y183646878D01*
X124930533Y183648019D01*
X125068161Y183689620D01*
X125068162Y183689620D01*
X125188496Y183768308D01*
X125188500Y183768313D01*
X125198148Y183779627D01*
X125256624Y183817868D01*
X125326491Y183818424D01*
X125385568Y183781119D01*
X125415098Y183717796D01*
X125416500Y183700160D01*
X125416620Y183685025D01*
X125458262Y183547257D01*
X125537029Y183426805D01*
X125537032Y183426801D01*
X125646544Y183333420D01*
X125700369Y183307009D01*
X126448119Y183034851D01*
X126506334Y183020483D01*
X126650247Y183021624D01*
X126788014Y183063266D01*
X126908466Y183142033D01*
X126908470Y183142036D01*
X126920468Y183156107D01*
X127001852Y183251548D01*
X127025754Y183300261D01*
X127072957Y183351774D01*
X127137075Y183369638D01*
X127352330Y183369638D01*
X127419369Y183349953D01*
X127438673Y183334638D01*
X130033329Y180817433D01*
X130067739Y180756624D01*
X130070986Y180728433D01*
X130070986Y174992976D01*
X130051301Y174925937D01*
X129998497Y174880182D01*
X129936178Y174869448D01*
X129898800Y174872718D01*
X129860091Y174430255D01*
X129859161Y174423689D01*
X129858899Y174422357D01*
X129858898Y174422354D01*
X129813241Y173900475D01*
X129787789Y173835406D01*
X129731198Y173794427D01*
X129678905Y173787754D01*
X129304833Y173820482D01*
X128707116Y173872775D01*
X128694233Y173725522D01*
X128695420Y173665626D01*
X128733731Y173527055D01*
X128733732Y173527053D01*
X128809538Y173404878D01*
X128916688Y173309013D01*
X128930125Y173302617D01*
X128982195Y173256029D01*
X129000812Y173188685D01*
X128980065Y173121967D01*
X128926541Y173077057D01*
X128909876Y173071140D01*
X128895283Y173067106D01*
X128772989Y172991226D01*
X128772987Y172991224D01*
X128735105Y172948883D01*
X128677026Y172883967D01*
X128677025Y172883965D01*
X128615168Y172754014D01*
X128603589Y172695193D01*
X128603587Y172695178D01*
X128534237Y171902486D01*
X128535425Y171842527D01*
X128568374Y171723352D01*
X128573776Y171703813D01*
X128619351Y171630361D01*
X128649659Y171581514D01*
X128673247Y171560410D01*
X128710082Y171501039D01*
X128708972Y171431178D01*
X128708437Y171429502D01*
X128514194Y170834773D01*
X128664282Y158663650D01*
X128781077Y158571561D01*
X128821533Y158514595D01*
X128827240Y158490377D01*
X128831132Y158460819D01*
X128891640Y158314739D01*
X128925228Y158270966D01*
X128950421Y158205797D01*
X128936382Y158137352D01*
X128887567Y158087363D01*
X128880144Y158083518D01*
X128851796Y158070025D01*
X128851793Y158070022D01*
X128744643Y157974157D01*
X128668837Y157851982D01*
X128668836Y157851980D01*
X128630525Y157713409D01*
X128629338Y157653513D01*
X128642221Y157506259D01*
X129537307Y157584570D01*
X129605807Y157570803D01*
X129635795Y157548724D01*
X129720495Y157464025D01*
X129753980Y157402702D01*
X129756342Y157387150D01*
X129770308Y157227517D01*
X129756541Y157159017D01*
X129707926Y157108834D01*
X129657587Y157093182D01*
X128685799Y157008163D01*
X128685798Y157008163D01*
X128698682Y156860903D01*
X128698684Y156860889D01*
X128710250Y156802135D01*
X128772047Y156672311D01*
X128867912Y156565161D01*
X128990087Y156489355D01*
X128990092Y156489353D01*
X129004426Y156485390D01*
X129063795Y156448552D01*
X129093823Y156385464D01*
X129084976Y156316156D01*
X129040063Y156262634D01*
X129024679Y156253914D01*
X129011010Y156247408D01*
X128963197Y156204630D01*
X128907498Y156154797D01*
X128903751Y156151445D01*
X128827871Y156029151D01*
X128789520Y155890433D01*
X128789520Y155890430D01*
X128789520Y155890429D01*
X128788330Y155830478D01*
X128857684Y155037781D01*
X128857686Y155037763D01*
X128869263Y154978949D01*
X128869264Y154978946D01*
X128931118Y154849001D01*
X128931120Y154848998D01*
X129027082Y154741739D01*
X129053961Y154725061D01*
X129070587Y154712708D01*
X133683499Y150645620D01*
X133686338Y150642954D01*
X136079156Y148250137D01*
X136084507Y148244035D01*
X136106207Y148215757D01*
X136106206Y148215757D01*
X136211670Y148134834D01*
X136231649Y148119503D01*
X136231651Y148119502D01*
X136377722Y148058998D01*
X136377727Y148058996D01*
X136534487Y148038359D01*
X136534488Y148038359D01*
X136569817Y148043010D01*
X136577916Y148043541D01*
X140670152Y148043541D01*
X140737191Y148023856D01*
X140782946Y147971052D01*
X140792890Y147901894D01*
X140787007Y147878057D01*
X140779809Y147857783D01*
X140771830Y147714226D01*
X140804618Y147574233D01*
X140804619Y147574229D01*
X140875514Y147449155D01*
X140875516Y147449153D01*
X140917017Y147405973D01*
X141030260Y147310949D01*
X141607811Y147999247D01*
X141665982Y148037949D01*
X141702800Y148043541D01*
X141822582Y148043541D01*
X141889621Y148023856D01*
X141902288Y148014530D01*
X142025038Y147911529D01*
X142063740Y147853357D01*
X142064848Y147783496D01*
X142040322Y147736834D01*
X141413282Y146989556D01*
X141526527Y146894533D01*
X141576257Y146861162D01*
X141711753Y146813060D01*
X141711749Y146813060D01*
X141855306Y146805081D01*
X141995299Y146837869D01*
X141995301Y146837869D01*
X142008239Y146845203D01*
X142076268Y146861136D01*
X142142111Y146837760D01*
X142184864Y146782497D01*
X142190953Y146712894D01*
X142186239Y146695842D01*
X142181175Y146681579D01*
X142173189Y146537880D01*
X142206007Y146397753D01*
X142206010Y146397745D01*
X142276976Y146272545D01*
X142276978Y146272543D01*
X142318517Y146229324D01*
X142318523Y146229318D01*
X142778095Y145843692D01*
X142928100Y145717823D01*
X142977882Y145684415D01*
X142977885Y145684413D01*
X143113508Y145636265D01*
X143113511Y145636264D01*
X143257211Y145628278D01*
X143257212Y145628278D01*
X143266044Y145629051D01*
X143266304Y145626072D01*
X143321114Y145623016D01*
X143376206Y145583918D01*
X143460758Y145478868D01*
X143460761Y145478866D01*
X151984319Y144321423D01*
X152043118Y144296929D01*
X152097158Y144255464D01*
X152243237Y144194956D01*
X152243239Y144194955D01*
X152399999Y144174318D01*
X152400000Y144174318D01*
X152400001Y144174318D01*
X152556760Y144194955D01*
X152556762Y144194956D01*
X152603583Y144214350D01*
X152682635Y144247094D01*
X152730086Y144256533D01*
X155672619Y144256533D01*
X155739658Y144236848D01*
X155785413Y144184044D01*
X155796147Y144121725D01*
X155792876Y144084348D01*
X155792877Y144084347D01*
X156235335Y144045639D01*
X156241893Y144044710D01*
X156243221Y144044448D01*
X156243245Y144044445D01*
X156765119Y143998788D01*
X156830188Y143973336D01*
X156871167Y143916745D01*
X156877840Y143864453D01*
X156849535Y143540907D01*
X156792819Y142892663D01*
X156940074Y142879780D01*
X156999969Y142880967D01*
X157138540Y142919278D01*
X157138542Y142919279D01*
X157260717Y142995085D01*
X157356581Y143102234D01*
X157362976Y143115668D01*
X157409562Y143167740D01*
X157476905Y143186359D01*
X157543624Y143165615D01*
X157588537Y143112092D01*
X157594456Y143095421D01*
X157598490Y143080830D01*
X157674371Y142958534D01*
X157781626Y142862575D01*
X157781630Y142862572D01*
X157911581Y142800715D01*
X157970402Y142789136D01*
X157970417Y142789134D01*
X158763110Y142719784D01*
X158763119Y142719784D01*
X158763122Y142719784D01*
X158811076Y142720734D01*
X158823068Y142720972D01*
X158961780Y142759322D01*
X158961783Y142759323D01*
X159084077Y142835203D01*
X159108565Y142862573D01*
X159165519Y142926231D01*
X159224889Y142963068D01*
X159259181Y142967545D01*
X169014034Y142869220D01*
X169080871Y142848860D01*
X169126092Y142795598D01*
X169135338Y142726343D01*
X169134900Y142723693D01*
X169120190Y142640269D01*
X169557589Y142563146D01*
X169564047Y142561647D01*
X169565363Y142561266D01*
X170081275Y142470297D01*
X170143878Y142439270D01*
X170179769Y142379323D01*
X170181859Y142326649D01*
X170012465Y141365969D01*
X170158048Y141340298D01*
X170158057Y141340297D01*
X170217798Y141336263D01*
X170217799Y141336263D01*
X170359198Y141362354D01*
X170487506Y141427220D01*
X170487510Y141427222D01*
X170592347Y141525607D01*
X170599889Y141538433D01*
X170650837Y141586246D01*
X170719547Y141598925D01*
X170784204Y141572444D01*
X170824280Y141515211D01*
X170828723Y141498088D01*
X170831470Y141483201D01*
X170831471Y141483198D01*
X170896402Y141354760D01*
X170896404Y141354757D01*
X170994891Y141249812D01*
X171118955Y141176866D01*
X171118958Y141176864D01*
X171176534Y141160206D01*
X171176544Y141160203D01*
X171960192Y141022025D01*
X171960202Y141022024D01*
X172020019Y141017984D01*
X172020022Y141017984D01*
X172161555Y141044098D01*
X172289997Y141109031D01*
X172342991Y141158764D01*
X172405346Y141190287D01*
X172471694Y141184333D01*
X172577201Y141144447D01*
X172596967Y141134898D01*
X177276553Y138338137D01*
X177324000Y138286848D01*
X177336186Y138218050D01*
X177314514Y138160575D01*
X177232002Y138042734D01*
X177595817Y137787988D01*
X177601002Y137783931D01*
X177602049Y137783017D01*
X177602068Y137783002D01*
X178031208Y137482515D01*
X178074832Y137427938D01*
X178082025Y137358439D01*
X178061659Y137309817D01*
X177872830Y137040140D01*
X177502135Y136510733D01*
X177623232Y136425942D01*
X177675680Y136397033D01*
X177675683Y136397032D01*
X177814846Y136360923D01*
X177958557Y136365486D01*
X177958558Y136365486D01*
X178095152Y136410346D01*
X178095158Y136410349D01*
X178107409Y136418783D01*
X178173790Y136440585D01*
X178241420Y136423037D01*
X178288827Y136371711D01*
X178300960Y136302903D01*
X178297749Y136285504D01*
X178293949Y136270860D01*
X178298517Y136127004D01*
X178343423Y135990271D01*
X178343426Y135990265D01*
X178425033Y135871730D01*
X178425038Y135871724D01*
X178470185Y135832289D01*
X178470193Y135832282D01*
X179122017Y135375870D01*
X179122022Y135375868D01*
X179174533Y135346922D01*
X179311336Y135311425D01*
X179371283Y135275534D01*
X179398001Y135230091D01*
X179441801Y135096725D01*
X179441804Y135096719D01*
X179523330Y134978301D01*
X179523331Y134978299D01*
X179568444Y134938894D01*
X179689533Y134854106D01*
X179689534Y134854107D01*
X180244994Y135647386D01*
X180299571Y135691011D01*
X180346569Y135700263D01*
X180358920Y135700263D01*
X180425959Y135680578D01*
X180430044Y135677838D01*
X180628182Y135539099D01*
X180671807Y135484521D01*
X180678999Y135415023D01*
X180658633Y135366401D01*
X180099108Y134567318D01*
X180220206Y134482526D01*
X180272654Y134453617D01*
X180272657Y134453616D01*
X180411820Y134417507D01*
X180555531Y134422070D01*
X180555532Y134422070D01*
X180692126Y134466930D01*
X180692132Y134466933D01*
X180704383Y134475367D01*
X180770764Y134497169D01*
X180838394Y134479621D01*
X180885801Y134428295D01*
X180897934Y134359487D01*
X180894723Y134342088D01*
X180890923Y134327444D01*
X180895491Y134183588D01*
X180940397Y134046855D01*
X180940400Y134046849D01*
X181022007Y133928314D01*
X181022012Y133928308D01*
X181067159Y133888873D01*
X181067167Y133888866D01*
X181718991Y133432454D01*
X181718996Y133432452D01*
X181718999Y133432450D01*
X181719001Y133432449D01*
X181736370Y133422875D01*
X181771508Y133403506D01*
X181910812Y133367360D01*
X181910815Y133367360D01*
X181910816Y133367360D01*
X182006716Y133370405D01*
X182054668Y133371928D01*
X182191401Y133416834D01*
X182191402Y133416834D01*
X182277285Y133475961D01*
X182343666Y133497763D01*
X182411297Y133480215D01*
X182431651Y133464993D01*
X183441865Y132533647D01*
X183477812Y132473733D01*
X183476827Y132419803D01*
X183479338Y132419381D01*
X183454209Y132269945D01*
X183454208Y132269943D01*
X183471279Y132127183D01*
X183527877Y131995010D01*
X183619417Y131884143D01*
X183619421Y131884140D01*
X183667779Y131848830D01*
X183667785Y131848825D01*
X183795810Y131774909D01*
X184283561Y132619718D01*
X184334128Y132667934D01*
X184402735Y132681157D01*
X184452948Y132665105D01*
X184671186Y132539105D01*
X184719402Y132488538D01*
X184732625Y132419931D01*
X184716573Y132369718D01*
X184228823Y131524910D01*
X184228823Y131524909D01*
X184356838Y131450999D01*
X184411615Y131426767D01*
X184411621Y131426765D01*
X184553403Y131402924D01*
X184553405Y131402923D01*
X184696165Y131419994D01*
X184828338Y131476592D01*
X184839807Y131486062D01*
X184904036Y131513566D01*
X184972938Y131501979D01*
X185024638Y131454980D01*
X185042721Y131387491D01*
X185041039Y131369882D01*
X185038530Y131354961D01*
X185038529Y131354955D01*
X185055617Y131212049D01*
X185055618Y131212046D01*
X185112269Y131079752D01*
X185203906Y130968767D01*
X185252316Y130933419D01*
X185252331Y130933410D01*
X185941465Y130535539D01*
X185996288Y130511286D01*
X185996291Y130511285D01*
X186121130Y130490292D01*
X186183977Y130459763D01*
X186188248Y130455690D01*
X187323181Y129320758D01*
X187356666Y129259435D01*
X187359500Y129233077D01*
X187359500Y122670813D01*
X187339815Y122603774D01*
X187323181Y122583132D01*
X185426213Y120686164D01*
X185364890Y120652679D01*
X185327728Y120650317D01*
X185058946Y120673833D01*
X184999003Y120672645D01*
X184947673Y120658454D01*
X184877813Y120659562D01*
X184861333Y120666008D01*
X184814522Y120688291D01*
X184755760Y120699858D01*
X184608493Y120712742D01*
X184608492Y120712742D01*
X184569783Y120270279D01*
X184568853Y120263713D01*
X184568591Y120262381D01*
X184568590Y120262378D01*
X184522933Y119740499D01*
X184497481Y119675430D01*
X184440890Y119634451D01*
X184388597Y119627778D01*
X184014525Y119660506D01*
X183416808Y119712799D01*
X183403925Y119565546D01*
X183405112Y119505650D01*
X183443423Y119367079D01*
X183443424Y119367077D01*
X183519230Y119244902D01*
X183626380Y119149037D01*
X183639817Y119142641D01*
X183691887Y119096053D01*
X183710504Y119028709D01*
X183689757Y118961991D01*
X183636233Y118917081D01*
X183619568Y118911164D01*
X183604975Y118907130D01*
X183482681Y118831250D01*
X183482679Y118831248D01*
X183438121Y118781445D01*
X183386718Y118723991D01*
X183386717Y118723989D01*
X183324860Y118594038D01*
X183313281Y118535217D01*
X183313279Y118535202D01*
X183243929Y117742510D01*
X183245117Y117682551D01*
X183283467Y117543839D01*
X183359349Y117421541D01*
X183462021Y117329681D01*
X183498857Y117270311D01*
X183500088Y117209058D01*
X183482198Y117132491D01*
X183525368Y115552681D01*
X183525368Y108017560D01*
X183524837Y108009458D01*
X183520186Y107974131D01*
X183525368Y107934771D01*
X183540823Y107817371D01*
X183540824Y107817369D01*
X183601332Y107671289D01*
X183697583Y107545852D01*
X183697586Y107545850D01*
X183698306Y107545296D01*
X183698761Y107544674D01*
X183703328Y107540108D01*
X183702615Y107539395D01*
X183739506Y107488867D01*
X183746768Y107450313D01*
X183761334Y106917282D01*
X183761334Y106917281D01*
X184583260Y106095356D01*
X184616745Y106034033D01*
X184619579Y106007675D01*
X184619579Y105529270D01*
X184619223Y105522636D01*
X184619079Y105521301D01*
X184619079Y105521291D01*
X184619080Y104997425D01*
X184599396Y104930386D01*
X184546592Y104884631D01*
X184495080Y104873425D01*
X183519579Y104873425D01*
X183519579Y104725580D01*
X183525980Y104666052D01*
X183525982Y104666045D01*
X183576224Y104531338D01*
X183576228Y104531331D01*
X183662388Y104416237D01*
X183662391Y104416234D01*
X183777485Y104330074D01*
X183777491Y104330071D01*
X183791430Y104324872D01*
X183847362Y104282999D01*
X183871777Y104217534D01*
X183856924Y104149261D01*
X183807517Y104099857D01*
X183791427Y104092509D01*
X183777248Y104087221D01*
X183777243Y104087218D01*
X183662034Y104000972D01*
X183662031Y104000969D01*
X183575785Y103885760D01*
X183575781Y103885753D01*
X183525487Y103750907D01*
X183519080Y103691308D01*
X183519079Y103691289D01*
X183519079Y102895554D01*
X183519080Y102895548D01*
X183525487Y102835941D01*
X183575781Y102701096D01*
X183575785Y102701089D01*
X183662030Y102585882D01*
X183662036Y102585876D01*
X183719391Y102542940D01*
X183761261Y102487006D01*
X183769079Y102443674D01*
X183769079Y100153849D01*
X183768548Y100145747D01*
X183763897Y100110420D01*
X183769079Y100071060D01*
X183784534Y99953660D01*
X183784535Y99953658D01*
X183845044Y99807577D01*
X183846730Y99804657D01*
X183847458Y99801748D01*
X183848153Y99800072D01*
X183847904Y99799969D01*
X183863274Y99738617D01*
X183863025Y99731017D01*
X183863027Y99731014D01*
X185267627Y98363135D01*
X188677005Y94953756D01*
X188710490Y94892433D01*
X188709211Y94874550D01*
X188711030Y94874710D01*
X188754216Y94381091D01*
X188754441Y94374490D01*
X188754414Y94373113D01*
X188754414Y94373096D01*
X188800073Y93851214D01*
X188786306Y93782714D01*
X188737691Y93732531D01*
X188687352Y93716879D01*
X188313287Y93684153D01*
X188313267Y93684152D01*
X187715564Y93631860D01*
X187715563Y93631860D01*
X187728447Y93484600D01*
X187728449Y93484586D01*
X187740015Y93425832D01*
X187801812Y93296008D01*
X187897677Y93188858D01*
X188019852Y93113052D01*
X188019857Y93113050D01*
X188034191Y93109087D01*
X188093560Y93072249D01*
X188123588Y93009161D01*
X188114741Y92939853D01*
X188069828Y92886331D01*
X188054444Y92877611D01*
X188040775Y92871105D01*
X187933516Y92775142D01*
X187857636Y92652848D01*
X187819285Y92514130D01*
X187819285Y92514127D01*
X187819285Y92514126D01*
X187818095Y92454175D01*
X187887449Y91661478D01*
X187887451Y91661460D01*
X187899028Y91602646D01*
X187899029Y91602643D01*
X187960883Y91472698D01*
X187960888Y91472691D01*
X188056847Y91365436D01*
X188179145Y91289554D01*
X188230300Y91275411D01*
X188289670Y91238574D01*
X188319700Y91175487D01*
X188321174Y91160444D01*
X188402880Y88934881D01*
X188402880Y82176645D01*
X188395402Y82134234D01*
X188343447Y81991493D01*
X188340849Y81985390D01*
X188340253Y81984175D01*
X188340249Y81984167D01*
X188161077Y81491893D01*
X188119651Y81435629D01*
X188054382Y81410693D01*
X188002144Y81417781D01*
X187649290Y81546211D01*
X187085474Y81751422D01*
X187034914Y81612510D01*
X187020562Y81554360D01*
X187021703Y81410591D01*
X187063304Y81272963D01*
X187063304Y81272962D01*
X187141992Y81152628D01*
X187141996Y81152624D01*
X187153314Y81142974D01*
X187191554Y81084497D01*
X187192107Y81014629D01*
X187154800Y80955554D01*
X187091476Y80926026D01*
X187073839Y80924624D01*
X187061742Y80924528D01*
X187058707Y80924504D01*
X186920941Y80882862D01*
X186800487Y80804094D01*
X186707104Y80694581D01*
X186701269Y80682689D01*
X186680693Y80640756D01*
X186680693Y80640755D01*
X186408535Y79893005D01*
X186394167Y79834790D01*
X186395308Y79690877D01*
X186436950Y79553112D01*
X186440701Y79545068D01*
X186437439Y79543547D01*
X186452627Y79492892D01*
X186433324Y79425742D01*
X186428083Y79418128D01*
X186197331Y79108251D01*
X186201854Y73458392D01*
X186182223Y73391337D01*
X186174319Y73380379D01*
X182920575Y69351935D01*
X182916180Y69347048D01*
X181380705Y67811573D01*
X181319382Y67778088D01*
X181249690Y67783072D01*
X181193757Y67824944D01*
X181173249Y67867161D01*
X181147652Y67962691D01*
X181147645Y67962713D01*
X181126055Y68018559D01*
X181042652Y68135683D01*
X181042651Y68135684D01*
X180929636Y68224558D01*
X180796163Y68277994D01*
X180796154Y68277996D01*
X180653036Y68291663D01*
X180653033Y68291662D01*
X180593860Y68282434D01*
X180593854Y68282433D01*
X180451064Y68244172D01*
X180703541Y67301910D01*
X180701878Y67232060D01*
X180662715Y67174198D01*
X180615863Y67150044D01*
X180372445Y67084820D01*
X180302598Y67086483D01*
X180244735Y67125645D01*
X180220579Y67172501D01*
X179968100Y68114762D01*
X179825319Y68076505D01*
X179825297Y68076498D01*
X179769451Y68054908D01*
X179652327Y67971505D01*
X179652326Y67971504D01*
X179563452Y67858489D01*
X179510016Y67725016D01*
X179510014Y67725008D01*
X179508600Y67710197D01*
X179482630Y67645333D01*
X179425715Y67604806D01*
X179355925Y67601483D01*
X179295417Y67636420D01*
X179284161Y67650052D01*
X179275376Y67662390D01*
X179162245Y67751356D01*
X179028632Y67804848D01*
X178885362Y67818528D01*
X178826124Y67809290D01*
X178057494Y67603335D01*
X178001573Y67581717D01*
X177884337Y67498235D01*
X177884335Y67498233D01*
X177884334Y67498232D01*
X177884333Y67498231D01*
X177795370Y67385103D01*
X177746989Y67264255D01*
X177703798Y67209334D01*
X177642078Y67186763D01*
X177313687Y67159650D01*
X177313686Y67159649D01*
X177270731Y66338147D01*
X177261461Y66297170D01*
X177211228Y66175895D01*
X177211226Y66175890D01*
X177190589Y66019131D01*
X177190589Y66019129D01*
X177195240Y65983803D01*
X177195771Y65975701D01*
X177195771Y61949950D01*
X177194124Y61741208D01*
X177173911Y61674326D01*
X177120748Y61628989D01*
X177051513Y61619591D01*
X177047625Y61620245D01*
X177016921Y61625910D01*
X177016918Y61625911D01*
X176957162Y61621875D01*
X176957161Y61621875D01*
X176811582Y61596205D01*
X176888708Y61158810D01*
X176889508Y61152239D01*
X176889600Y61150871D01*
X176889602Y61150857D01*
X176980572Y60634945D01*
X176972828Y60565506D01*
X176928771Y60511277D01*
X176879988Y60491297D01*
X175919308Y60321904D01*
X175944979Y60176320D01*
X175961625Y60118787D01*
X176034498Y59994847D01*
X176139337Y59896461D01*
X176139341Y59896459D01*
X176267649Y59831593D01*
X176267651Y59831592D01*
X176282289Y59828891D01*
X176344643Y59797366D01*
X176380054Y59737135D01*
X176377281Y59667320D01*
X176337203Y59610088D01*
X176322635Y59600059D01*
X176309586Y59592387D01*
X176291963Y59573609D01*
X176238792Y59540190D01*
X176175633Y59520302D01*
X176175633Y59520301D01*
X176175632Y59520301D01*
X176180105Y59506700D01*
X176182345Y59436866D01*
X176172972Y59412025D01*
X176146165Y59358999D01*
X176135307Y59300151D01*
X176120050Y59217463D01*
X176120050Y59217460D01*
X176124088Y59157659D01*
X176124089Y59157649D01*
X176262269Y58374000D01*
X176262271Y58373991D01*
X176278933Y58316399D01*
X176351879Y58192335D01*
X176456824Y58093848D01*
X176456827Y58093846D01*
X176585261Y58028916D01*
X176585270Y58028913D01*
X176611123Y58024143D01*
X176673477Y57992620D01*
X176698055Y57960513D01*
X176990522Y57411634D01*
X176999253Y57384495D01*
X177000926Y57384944D01*
X177003027Y57377099D01*
X177063536Y57231020D01*
X177133306Y57140093D01*
X177144362Y57122921D01*
X177184933Y57046783D01*
X177199500Y56988470D01*
X177199500Y56038707D01*
X177198969Y56030605D01*
X177194318Y55995278D01*
X177199500Y55955918D01*
X177214955Y55838518D01*
X177214956Y55838516D01*
X177275464Y55692436D01*
X177371716Y55566998D01*
X177399994Y55545298D01*
X177406096Y55539947D01*
X178501693Y54444349D01*
X178535178Y54383026D01*
X178537339Y54369565D01*
X178816635Y51698774D01*
X178804030Y51630051D01*
X178781683Y51598895D01*
X178767874Y51584865D01*
X178706818Y51550894D01*
X178689325Y51548237D01*
X178637646Y51544128D01*
X178580964Y51524762D01*
X178446993Y51462289D01*
X178446992Y51462289D01*
X178634696Y51059757D01*
X178637163Y51053636D01*
X178637604Y51052346D01*
X178637619Y51052309D01*
X178859016Y50577522D01*
X178869508Y50508444D01*
X178840988Y50444660D01*
X178799039Y50412735D01*
X178471027Y50259781D01*
X177914934Y50000470D01*
X177977407Y49866497D01*
X178008377Y49815231D01*
X178110849Y49714372D01*
X178110852Y49714371D01*
X178237574Y49646475D01*
X178237586Y49646470D01*
X178378313Y49617023D01*
X178378314Y49617023D01*
X178393145Y49618202D01*
X178461533Y49603891D01*
X178511327Y49554877D01*
X178526718Y49486724D01*
X178502819Y49421069D01*
X178491345Y49407613D01*
X178480726Y49396824D01*
X178412758Y49269964D01*
X178412755Y49269958D01*
X178383279Y49129093D01*
X178394686Y48985622D01*
X178414072Y48928882D01*
X178750365Y48207702D01*
X178781368Y48156379D01*
X178850892Y48087950D01*
X178883939Y48055423D01*
X178950090Y48019981D01*
X179010798Y47987455D01*
X179010804Y47987452D01*
X179151669Y47957976D01*
X179282748Y47968397D01*
X179295141Y47969383D01*
X179323507Y47979075D01*
X179351875Y47988767D01*
X179351886Y47988772D01*
X179424148Y48022468D01*
X179476913Y48034085D01*
X179545562Y48033885D01*
X179557889Y48033849D01*
X179565807Y48033319D01*
X179653276Y48021804D01*
X179653277Y48021804D01*
X179653278Y48021804D01*
X179666484Y48023542D01*
X179688606Y48026455D01*
X179696704Y48026986D01*
X181910318Y48026986D01*
X201319182Y47970355D01*
X201386164Y47950475D01*
X201404193Y47936286D01*
X204582989Y44918557D01*
X207239601Y42261944D01*
X207273086Y42200621D01*
X207274036Y42152731D01*
X207266381Y42109319D01*
X207521134Y41745494D01*
X207524624Y41739899D01*
X207525289Y41738694D01*
X207525300Y41738675D01*
X207825784Y41309540D01*
X207848111Y41243334D01*
X207831101Y41175567D01*
X207795332Y41136842D01*
X206996249Y40577319D01*
X206996249Y40577318D01*
X207081037Y40456229D01*
X207120442Y40411116D01*
X207120444Y40411115D01*
X207238862Y40329589D01*
X207238870Y40329585D01*
X207375464Y40284725D01*
X207519173Y40280162D01*
X207533571Y40283898D01*
X207603405Y40281681D01*
X207660955Y40242061D01*
X207687949Y40177616D01*
X207675816Y40108808D01*
X207666849Y40093556D01*
X207658267Y40081091D01*
X207658267Y40081090D01*
X207613361Y39944357D01*
X207608793Y39800501D01*
X207644938Y39661200D01*
X207644941Y39661193D01*
X207673879Y39608693D01*
X207673886Y39608681D01*
X207985135Y39164172D01*
X208006499Y39109236D01*
X208013736Y39054272D01*
X208074244Y38908191D01*
X208170496Y38782753D01*
X208198774Y38761053D01*
X208204876Y38755702D01*
X208967434Y37993142D01*
X208991714Y37958759D01*
X209095107Y37741564D01*
X209095113Y37741556D01*
X213375324Y33585253D01*
X215899818Y31060758D01*
X215933303Y30999435D01*
X215928319Y30929743D01*
X215891843Y30878088D01*
X215863101Y30853971D01*
X216148586Y30513743D01*
X216152546Y30508480D01*
X216153314Y30507337D01*
X216153337Y30507306D01*
X216490080Y30105991D01*
X216518092Y30041982D01*
X216507053Y29972990D01*
X216474796Y29931296D01*
X216203897Y29703984D01*
X216203895Y29703983D01*
X216203896Y29703983D01*
X215727519Y29304255D01*
X215822542Y29191013D01*
X215865722Y29149512D01*
X215865724Y29149510D01*
X215990798Y29078615D01*
X215990802Y29078614D01*
X216130795Y29045826D01*
X216274352Y29053805D01*
X216274354Y29053806D01*
X216288371Y29058782D01*
X216358133Y29062659D01*
X216418917Y29028205D01*
X216451424Y28966357D01*
X216445333Y28896754D01*
X216437730Y28880782D01*
X216430269Y28867619D01*
X216430267Y28867613D01*
X216397449Y28727486D01*
X216405435Y28583785D01*
X216405436Y28583782D01*
X216453584Y28448159D01*
X216453589Y28448151D01*
X216486990Y28398376D01*
X216998491Y27788794D01*
X216998495Y27788790D01*
X217041715Y27747251D01*
X217166916Y27676284D01*
X217166924Y27676281D01*
X217307052Y27643463D01*
X217393732Y27648280D01*
X217427707Y27645475D01*
X218019735Y27512909D01*
X218080321Y27479586D01*
X219559409Y26000500D01*
X229957815Y15162725D01*
X229989471Y15103390D01*
X230161447Y14317691D01*
X230164315Y14291177D01*
X230164315Y13870875D01*
X230144630Y13803836D01*
X230092720Y13758493D01*
X230044784Y13736141D01*
X229993466Y13705141D01*
X229993464Y13705139D01*
X229956107Y13667185D01*
X229895051Y13633215D01*
X229877559Y13630558D01*
X229825880Y13626449D01*
X229769198Y13607083D01*
X229635227Y13544610D01*
X229635226Y13544610D01*
X229822930Y13142078D01*
X229825397Y13135957D01*
X229825838Y13134667D01*
X229825853Y13134630D01*
X230047250Y12659843D01*
X230057742Y12590765D01*
X230029222Y12526981D01*
X229987273Y12495056D01*
X229659261Y12342102D01*
X229103168Y12082791D01*
X229165641Y11948818D01*
X229196611Y11897552D01*
X229299083Y11796693D01*
X229299086Y11796692D01*
X229425808Y11728796D01*
X229425820Y11728791D01*
X229566547Y11699344D01*
X229566548Y11699344D01*
X229581379Y11700523D01*
X229649767Y11686212D01*
X229699561Y11637198D01*
X229714952Y11569045D01*
X229691053Y11503390D01*
X229679579Y11489934D01*
X229668960Y11479145D01*
X229603542Y11357045D01*
X229600992Y11352285D01*
X229600989Y11352279D01*
X229571513Y11211414D01*
X229582920Y11067943D01*
X229602306Y11011203D01*
X229938599Y10290023D01*
X229969602Y10238700D01*
X230026863Y10182341D01*
X230072173Y10137744D01*
X230199034Y10069775D01*
X230206851Y10065587D01*
X230206209Y10064389D01*
X230255025Y10028439D01*
X230279954Y9963168D01*
X230280317Y9955884D01*
X230539500Y-2742490D01*
X230539500Y-8346061D01*
X230521829Y-9077322D01*
X230500530Y-9143866D01*
X230446637Y-9188332D01*
X230387058Y-9197854D01*
X230183601Y-9180054D01*
X230183592Y-9180054D01*
X230183591Y-9180054D01*
X230137481Y-9180967D01*
X230123645Y-9181242D01*
X230072316Y-9195433D01*
X230002456Y-9194323D01*
X229985980Y-9187879D01*
X229939166Y-9165595D01*
X229880412Y-9154029D01*
X229880398Y-9154027D01*
X229733138Y-9141143D01*
X229733137Y-9141144D01*
X229694429Y-9583602D01*
X229693500Y-9590160D01*
X229693238Y-9591488D01*
X229693235Y-9591512D01*
X229647578Y-10113386D01*
X229622126Y-10178455D01*
X229565535Y-10219434D01*
X229513243Y-10226107D01*
X229187208Y-10197583D01*
X228541453Y-10141086D01*
X228528570Y-10288340D01*
X228529757Y-10348236D01*
X228568068Y-10486807D01*
X228568069Y-10486809D01*
X228643875Y-10608984D01*
X228751024Y-10704848D01*
X228764458Y-10711243D01*
X228816530Y-10757829D01*
X228835149Y-10825172D01*
X228814405Y-10891891D01*
X228760882Y-10936804D01*
X228744211Y-10942723D01*
X228729620Y-10946757D01*
X228607324Y-11022638D01*
X228511365Y-11129893D01*
X228511362Y-11129897D01*
X228449505Y-11259848D01*
X228437926Y-11318669D01*
X228437924Y-11318684D01*
X228368574Y-12111376D01*
X228369762Y-12171335D01*
X228397964Y-12273342D01*
X228408113Y-12310050D01*
X228483993Y-12432344D01*
X228483994Y-12432345D01*
X228591249Y-12528305D01*
X228594692Y-12530595D01*
X228597352Y-12533765D01*
X228597862Y-12534221D01*
X228597796Y-12534294D01*
X228639607Y-12584115D01*
X228650013Y-12633838D01*
X228650013Y-15847084D01*
X228649482Y-15855186D01*
X228644831Y-15890512D01*
X228644831Y-15890513D01*
X228650013Y-15929873D01*
X228666530Y-16055333D01*
X228665588Y-16055456D01*
X228668342Y-16086227D01*
X228657140Y-16220568D01*
X228657141Y-16220569D01*
X235368919Y-23219175D01*
X235371412Y-23221774D01*
X235403607Y-23283784D01*
X235405568Y-23316884D01*
X235102559Y-27353665D01*
X234485417Y-35575422D01*
X234485417Y-35575428D01*
X234485417Y-35575429D01*
X234534113Y-39553672D01*
X234515250Y-39620948D01*
X234463010Y-39667345D01*
X234417770Y-39675422D01*
X234412470Y-39679869D01*
X234373762Y-40122328D01*
X234372833Y-40128886D01*
X234372571Y-40130214D01*
X234372568Y-40130238D01*
X234326911Y-40652112D01*
X234301459Y-40717181D01*
X234244868Y-40758160D01*
X234192576Y-40764833D01*
X233866541Y-40736309D01*
X233220786Y-40679812D01*
X233207903Y-40827066D01*
X233209090Y-40886962D01*
X233247401Y-41025533D01*
X233247402Y-41025535D01*
X233323208Y-41147710D01*
X233430357Y-41243574D01*
X233443791Y-41249969D01*
X233495863Y-41296555D01*
X233514482Y-41363898D01*
X233493738Y-41430617D01*
X233440215Y-41475530D01*
X233423544Y-41481449D01*
X233408953Y-41485483D01*
X233286657Y-41561364D01*
X233190698Y-41668619D01*
X233190695Y-41668623D01*
X233128838Y-41798574D01*
X233117259Y-41857395D01*
X233117257Y-41857410D01*
X233051953Y-42603861D01*
X233026501Y-42668930D01*
X232969910Y-42709909D01*
X232933284Y-42716959D01*
X232717843Y-42725408D01*
X232650084Y-42708365D01*
X232602295Y-42657395D01*
X232589649Y-42588679D01*
X232591319Y-42577553D01*
X232601749Y-42524566D01*
X232614633Y-42377299D01*
X232614633Y-42377298D01*
X231642844Y-42292279D01*
X231577775Y-42266827D01*
X231536796Y-42210236D01*
X231530123Y-42157947D01*
X231552086Y-41906897D01*
X231577537Y-41841833D01*
X231634128Y-41800855D01*
X231686420Y-41794181D01*
X232658209Y-41879202D01*
X232671094Y-41731948D01*
X232669907Y-41672053D01*
X232631596Y-41533482D01*
X232631595Y-41533480D01*
X232555789Y-41411305D01*
X232448639Y-41315440D01*
X232448640Y-41315440D01*
X232435204Y-41309045D01*
X232383133Y-41262458D01*
X232364515Y-41195114D01*
X232385260Y-41128396D01*
X232438784Y-41083484D01*
X232455456Y-41077566D01*
X232470045Y-41073533D01*
X232592339Y-40997653D01*
X232688302Y-40890394D01*
X232750159Y-40760443D01*
X232761739Y-40701618D01*
X232807223Y-40181715D01*
X233264363Y-40181715D01*
X233264364Y-40181716D01*
X233862080Y-40234009D01*
X233862081Y-40234009D01*
X233914374Y-39636292D01*
X233914374Y-39636291D01*
X233767119Y-39623409D01*
X233707225Y-39624596D01*
X233568654Y-39662907D01*
X233568652Y-39662908D01*
X233446477Y-39738714D01*
X233350612Y-39845864D01*
X233288815Y-39975688D01*
X233277249Y-40034442D01*
X233277247Y-40034456D01*
X233264363Y-40181715D01*
X232807223Y-40181715D01*
X232831091Y-39908901D01*
X232829903Y-39848958D01*
X232791552Y-39710240D01*
X232715672Y-39587946D01*
X232715670Y-39587944D01*
X232715669Y-39587942D01*
X232715542Y-39587791D01*
X232715462Y-39587609D01*
X232710996Y-39580411D01*
X232712031Y-39579768D01*
X232687530Y-39523782D01*
X232687136Y-39495876D01*
X232749503Y-38865969D01*
X232549652Y-30703572D01*
X232549652Y-23712579D01*
X232550183Y-23704478D01*
X232554834Y-23669152D01*
X232554834Y-23669150D01*
X232534196Y-23512391D01*
X232534194Y-23512386D01*
X232473690Y-23366315D01*
X232473690Y-23366314D01*
X232435761Y-23316884D01*
X232401602Y-23272367D01*
X232389518Y-23256618D01*
X232377435Y-23240870D01*
X232349161Y-23219175D01*
X232343064Y-23213829D01*
X229483259Y-20354024D01*
X226447674Y-17047173D01*
X226416840Y-16984475D01*
X226415022Y-16963319D01*
X226415022Y-12452444D01*
X226434707Y-12385405D01*
X226445836Y-12375762D01*
X227085302Y-12375762D01*
X227232558Y-12388646D01*
X227292452Y-12387460D01*
X227431023Y-12349149D01*
X227431025Y-12349148D01*
X227553200Y-12273342D01*
X227649065Y-12166192D01*
X227710862Y-12036368D01*
X227722429Y-11977607D01*
X227735313Y-11830340D01*
X227735313Y-11830339D01*
X227137596Y-11778046D01*
X227137595Y-11778046D01*
X227085302Y-12375762D01*
X226445836Y-12375762D01*
X226487511Y-12339650D01*
X226549830Y-12328916D01*
X226587206Y-12332186D01*
X226625916Y-11889710D01*
X226626851Y-11883132D01*
X226627109Y-11881823D01*
X226672766Y-11359941D01*
X226698218Y-11294874D01*
X226754809Y-11253895D01*
X226807102Y-11247222D01*
X227310210Y-11291239D01*
X227310214Y-11291239D01*
X227778889Y-11332242D01*
X227791774Y-11184989D01*
X227790587Y-11125094D01*
X227752276Y-10986523D01*
X227752275Y-10986521D01*
X227676469Y-10864346D01*
X227569319Y-10768481D01*
X227569320Y-10768481D01*
X227555884Y-10762086D01*
X227503813Y-10715499D01*
X227485195Y-10648155D01*
X227505940Y-10581437D01*
X227559464Y-10536525D01*
X227576136Y-10530607D01*
X227590725Y-10526574D01*
X227713019Y-10450694D01*
X227808982Y-10343435D01*
X227870839Y-10213484D01*
X227882419Y-10154659D01*
X227927183Y-9642989D01*
X228585030Y-9642989D01*
X228585031Y-9642990D01*
X229182747Y-9695283D01*
X229182748Y-9695283D01*
X229235041Y-9097566D01*
X229087786Y-9084683D01*
X229027892Y-9085870D01*
X228889321Y-9124181D01*
X228889319Y-9124182D01*
X228767144Y-9199988D01*
X228671279Y-9307138D01*
X228609482Y-9436962D01*
X228597916Y-9495716D01*
X228597914Y-9495730D01*
X228585030Y-9642989D01*
X227927183Y-9642989D01*
X227951771Y-9361942D01*
X227950583Y-9301999D01*
X227912232Y-9163281D01*
X227836352Y-9040987D01*
X227743955Y-8958321D01*
X227707119Y-8898952D01*
X227704093Y-8846965D01*
X227770777Y-8415772D01*
X227670332Y-3056032D01*
X227670332Y7625779D01*
X227676922Y7665665D01*
X227721509Y7796915D01*
X228081717Y8857237D01*
X228121917Y8914380D01*
X228146720Y8929731D01*
X228239899Y8973181D01*
X228239904Y8973184D01*
X228291219Y9004181D01*
X228291221Y9004183D01*
X228328579Y9042138D01*
X228389635Y9076108D01*
X228407123Y9078765D01*
X228458805Y9082875D01*
X228458810Y9082875D01*
X228515493Y9102243D01*
X228649460Y9164712D01*
X228461752Y9567255D01*
X228459273Y9573409D01*
X228458836Y9574691D01*
X228297906Y9919806D01*
X228849043Y9919806D01*
X229102614Y9376023D01*
X229236592Y9438497D01*
X229287854Y9469465D01*
X229388713Y9571937D01*
X229388714Y9571940D01*
X229456610Y9698662D01*
X229456615Y9698674D01*
X229486062Y9839399D01*
X229474666Y9982726D01*
X229455300Y10039407D01*
X229392827Y10173378D01*
X228849043Y9919806D01*
X228297906Y9919806D01*
X228237435Y10049485D01*
X228226944Y10118557D01*
X228255463Y10182341D01*
X228297413Y10214267D01*
X228576078Y10344211D01*
X228576079Y10344211D01*
X229181517Y10626532D01*
X229181518Y10626533D01*
X229119045Y10760506D01*
X229088076Y10811772D01*
X228985604Y10912631D01*
X228985601Y10912632D01*
X228858879Y10980528D01*
X228858867Y10980533D01*
X228718141Y11009979D01*
X228703313Y11008801D01*
X228634924Y11023110D01*
X228585128Y11072122D01*
X228569735Y11140274D01*
X228593631Y11205931D01*
X228605107Y11219389D01*
X228615728Y11230180D01*
X228683697Y11357041D01*
X228683698Y11357045D01*
X228713174Y11497910D01*
X228712738Y11503390D01*
X228701768Y11641382D01*
X228682384Y11698115D01*
X228355538Y12399035D01*
X228343921Y12451440D01*
X228343921Y12869925D01*
X228798625Y12869925D01*
X228810021Y12726598D01*
X228829385Y12669924D01*
X228891859Y12535946D01*
X229435643Y12789517D01*
X229182072Y13333300D01*
X229182072Y13333301D01*
X229048099Y13270829D01*
X228996833Y13239859D01*
X228895974Y13137387D01*
X228895973Y13137384D01*
X228828077Y13010662D01*
X228828072Y13010650D01*
X228798625Y12869925D01*
X228343921Y12869925D01*
X228343921Y13471235D01*
X228344452Y13479337D01*
X228349103Y13514663D01*
X228349103Y13514665D01*
X228333845Y13630558D01*
X228328465Y13671426D01*
X228267957Y13817505D01*
X228171703Y13942946D01*
X228143420Y13964647D01*
X228137343Y13969975D01*
X215819517Y26287801D01*
X215786035Y26349120D01*
X215791019Y26418812D01*
X215827495Y26470467D01*
X215856238Y26494585D01*
X215856238Y26494586D01*
X215570738Y26834830D01*
X215566747Y26840141D01*
X215566000Y26841256D01*
X215229258Y27242567D01*
X215214800Y27275605D01*
X215853586Y27275605D01*
X216239260Y26815978D01*
X216352499Y26910998D01*
X216394004Y26954182D01*
X216394006Y26954184D01*
X216464901Y27079258D01*
X216464902Y27079262D01*
X216497690Y27219255D01*
X216489711Y27362810D01*
X216441609Y27498304D01*
X216408240Y27548031D01*
X216408227Y27548048D01*
X216313214Y27661278D01*
X215853586Y27275605D01*
X215214800Y27275605D01*
X215201247Y27306573D01*
X215212286Y27375565D01*
X215244543Y27417260D01*
X215471677Y27607849D01*
X215471681Y27607850D01*
X215991821Y28044301D01*
X215896803Y28157538D01*
X215896792Y28157549D01*
X215853618Y28199045D01*
X215853616Y28199047D01*
X215728542Y28269942D01*
X215728538Y28269943D01*
X215588545Y28302731D01*
X215444988Y28294752D01*
X215430972Y28289776D01*
X215361210Y28285897D01*
X215300426Y28320350D01*
X215267917Y28382196D01*
X215274006Y28451800D01*
X215281611Y28467777D01*
X215289072Y28480940D01*
X215289073Y28480942D01*
X215321892Y28621072D01*
X215313905Y28764772D01*
X215265755Y28900401D01*
X215232348Y28950184D01*
X214720852Y29559760D01*
X214677626Y29601306D01*
X214552419Y29672276D01*
X214412289Y29705095D01*
X214412187Y29705089D01*
X214412088Y29705112D01*
X214403454Y29705868D01*
X214403562Y29707109D01*
X214344160Y29721022D01*
X214305571Y29755217D01*
X214029243Y30129302D01*
X215221650Y30129302D01*
X215229629Y29985747D01*
X215277731Y29850253D01*
X215311102Y29800523D01*
X215406126Y29687277D01*
X215865753Y30072951D01*
X215480079Y30532578D01*
X215366841Y30437559D01*
X215325336Y30394375D01*
X215325334Y30394373D01*
X215254439Y30269299D01*
X215254438Y30269295D01*
X215221650Y30129302D01*
X214029243Y30129302D01*
X213741387Y30518994D01*
X206885234Y37009990D01*
X206850087Y37070372D01*
X206853164Y37140174D01*
X206893490Y37197232D01*
X206899364Y37201609D01*
X207000515Y37272435D01*
X206745748Y37636281D01*
X206742241Y37641912D01*
X206741596Y37643084D01*
X206456169Y38050715D01*
X207065945Y38050715D01*
X207410090Y37559224D01*
X207531181Y37644012D01*
X207576294Y37683417D01*
X207576295Y37683419D01*
X207657821Y37801837D01*
X207657825Y37801845D01*
X207702685Y37938439D01*
X207702685Y37938440D01*
X207707248Y38082151D01*
X207671139Y38221314D01*
X207671138Y38221317D01*
X207642228Y38273767D01*
X207642222Y38273776D01*
X207557437Y38394861D01*
X207557436Y38394862D01*
X207065946Y38050716D01*
X207065945Y38050715D01*
X206456169Y38050715D01*
X206441111Y38072220D01*
X206418786Y38138421D01*
X206435796Y38206189D01*
X206471565Y38244914D01*
X207270648Y38804436D01*
X207185860Y38925528D01*
X207146456Y38970640D01*
X207146454Y38970641D01*
X207028036Y39052167D01*
X207028028Y39052171D01*
X206891434Y39097031D01*
X206747726Y39101594D01*
X206733331Y39097859D01*
X206663496Y39100074D01*
X206605945Y39139693D01*
X206578949Y39204136D01*
X206591080Y39272945D01*
X206600050Y39288201D01*
X206608630Y39300664D01*
X206608631Y39300665D01*
X206653538Y39437402D01*
X206658106Y39581252D01*
X206621959Y39720561D01*
X206593018Y39773066D01*
X206136597Y40424902D01*
X206097156Y40470057D01*
X205978612Y40551670D01*
X205841875Y40596577D01*
X205698025Y40601145D01*
X205631186Y40583802D01*
X205561356Y40586017D01*
X205512366Y40616144D01*
X205094588Y41033922D01*
X205089260Y41039999D01*
X205067559Y41068282D01*
X204942118Y41164536D01*
X204796039Y41225044D01*
X204715367Y41235664D01*
X204651474Y41263928D01*
X204641683Y41273170D01*
X204616567Y41299605D01*
X206559650Y41299605D01*
X206595759Y41160442D01*
X206595760Y41160439D01*
X206624669Y41107991D01*
X206709461Y40986894D01*
X207200951Y41331039D01*
X207200952Y41331040D01*
X206856807Y41822531D01*
X206735713Y41737740D01*
X206690604Y41698339D01*
X206690603Y41698337D01*
X206609077Y41579919D01*
X206609073Y41579911D01*
X206564213Y41443317D01*
X206564213Y41443316D01*
X206559650Y41299605D01*
X204616567Y41299605D01*
X203485876Y42489671D01*
X187691241Y29628647D01*
X187626829Y29601582D01*
X187605650Y29601019D01*
X173438744Y30437559D01*
X172720001Y30480000D01*
X172720000Y30480000D01*
X144780000Y2540000D01*
X141088046Y-1315649D01*
X141085793Y-1317885D01*
X136465591Y-5673122D01*
X136403306Y-5704783D01*
X136382483Y-5706877D01*
X106654634Y-6173874D01*
X106654633Y-6173874D01*
X106091606Y-6713126D01*
X105807690Y-6985052D01*
X105745661Y-7017206D01*
X105721922Y-7019500D01*
X104790887Y-7019500D01*
X104782788Y-7018969D01*
X104747459Y-7014318D01*
X104708098Y-7019500D01*
X104590698Y-7034955D01*
X104590696Y-7034956D01*
X104444619Y-7095463D01*
X104319173Y-7191721D01*
X104297483Y-7219990D01*
X104292130Y-7226094D01*
X86087582Y-25430640D01*
X86026259Y-25464125D01*
X85999901Y-25466959D01*
X85652130Y-25466959D01*
X85652123Y-25466960D01*
X85592517Y-25473367D01*
X85542616Y-25491979D01*
X85472925Y-25496962D01*
X85455953Y-25491978D01*
X85407383Y-25473862D01*
X85407372Y-25473860D01*
X85347844Y-25467459D01*
X85200000Y-25467459D01*
X85200000Y-25911605D01*
X85199645Y-25918236D01*
X85199500Y-25919581D01*
X85199500Y-25919586D01*
X85199500Y-26316194D01*
X85199501Y-26443459D01*
X85179817Y-26510498D01*
X85127013Y-26556253D01*
X85075501Y-26567459D01*
X84100000Y-26567459D01*
X84100000Y-26715303D01*
X84106401Y-26774831D01*
X84106403Y-26774838D01*
X84156645Y-26909545D01*
X84156649Y-26909552D01*
X84242809Y-27024646D01*
X84242812Y-27024649D01*
X84357906Y-27110809D01*
X84357915Y-27110814D01*
X84371846Y-27116010D01*
X84427780Y-27157880D01*
X84452198Y-27223344D01*
X84437347Y-27291617D01*
X84387942Y-27341023D01*
X84371849Y-27348373D01*
X84357674Y-27353660D01*
X84357664Y-27353665D01*
X84242455Y-27439911D01*
X84242452Y-27439914D01*
X84156206Y-27555123D01*
X84156202Y-27555130D01*
X84105908Y-27689976D01*
X84099501Y-27749575D01*
X84099500Y-27749594D01*
X84099500Y-28545329D01*
X84099501Y-28545335D01*
X84105908Y-28604942D01*
X84156204Y-28739792D01*
X84157988Y-28743059D01*
X84158778Y-28746694D01*
X84159303Y-28748100D01*
X84159100Y-28748175D01*
X84172839Y-28811333D01*
X84159711Y-28856045D01*
X84159746Y-28856058D01*
X84159567Y-28856536D01*
X84157992Y-28861903D01*
X84156647Y-28864366D01*
X84106403Y-28999077D01*
X84106401Y-28999084D01*
X84100000Y-29058612D01*
X84100000Y-29206457D01*
X84923667Y-29206457D01*
X84990706Y-29226142D01*
X85011348Y-29242776D01*
X85163181Y-29394609D01*
X85196666Y-29455932D01*
X85199500Y-29482289D01*
X85199500Y-29582458D01*
X85179817Y-29649495D01*
X85127014Y-29695251D01*
X85075501Y-29706457D01*
X84100000Y-29706457D01*
X84100000Y-29854301D01*
X84106401Y-29913829D01*
X84106403Y-29913836D01*
X84156645Y-30048543D01*
X84156649Y-30048550D01*
X84242809Y-30163644D01*
X84242812Y-30163647D01*
X84357906Y-30249807D01*
X84357915Y-30249812D01*
X84371846Y-30255008D01*
X84427780Y-30296878D01*
X84452198Y-30362342D01*
X84437347Y-30430615D01*
X84387942Y-30480021D01*
X84371849Y-30487371D01*
X84357674Y-30492658D01*
X84357664Y-30492663D01*
X84242455Y-30578909D01*
X84242452Y-30578912D01*
X84156206Y-30694121D01*
X84156202Y-30694128D01*
X84105908Y-30828974D01*
X84099501Y-30888573D01*
X84099500Y-30888592D01*
X84099500Y-31684327D01*
X84099501Y-31684333D01*
X84105908Y-31743940D01*
X84156202Y-31878785D01*
X84156203Y-31878786D01*
X84156204Y-31878788D01*
X84218138Y-31961522D01*
X84220907Y-31965220D01*
X84245324Y-32030684D01*
X84230473Y-32098957D01*
X84220907Y-32113842D01*
X84156647Y-32199682D01*
X84156645Y-32199685D01*
X84106403Y-32334392D01*
X84106401Y-32334399D01*
X84100000Y-32393927D01*
X84100000Y-32541772D01*
X85075500Y-32541772D01*
X85142539Y-32561457D01*
X85188294Y-32614261D01*
X85199500Y-32665772D01*
X85199501Y-32917772D01*
X85179817Y-32984811D01*
X85127013Y-33030566D01*
X85075501Y-33041772D01*
X84100000Y-33041772D01*
X84100000Y-33189616D01*
X84106401Y-33249144D01*
X84106403Y-33249151D01*
X84156645Y-33383858D01*
X84156649Y-33383865D01*
X84242809Y-33498959D01*
X84242812Y-33498962D01*
X84357906Y-33585122D01*
X84357915Y-33585127D01*
X84371846Y-33590323D01*
X84427780Y-33632193D01*
X84452198Y-33697657D01*
X84437347Y-33765930D01*
X84387942Y-33815336D01*
X84371849Y-33822686D01*
X84357674Y-33827973D01*
X84357664Y-33827978D01*
X84242455Y-33914224D01*
X84242452Y-33914227D01*
X84156206Y-34029436D01*
X84156202Y-34029443D01*
X84105908Y-34164289D01*
X84099501Y-34223888D01*
X84099500Y-34223907D01*
X84099500Y-35019642D01*
X84099501Y-35019648D01*
X84105908Y-35079255D01*
X84156202Y-35214100D01*
X84156206Y-35214107D01*
X84242452Y-35329316D01*
X84242455Y-35329319D01*
X84357664Y-35415565D01*
X84357671Y-35415569D01*
X84492517Y-35465863D01*
X84492516Y-35465863D01*
X84499444Y-35466607D01*
X84552127Y-35472272D01*
X85347872Y-35472271D01*
X85407483Y-35465863D01*
X85456665Y-35447518D01*
X85526355Y-35442533D01*
X85543333Y-35447519D01*
X85592508Y-35465860D01*
X85592511Y-35465861D01*
X85592517Y-35465863D01*
X85652127Y-35472272D01*
X86333513Y-35472271D01*
X86400552Y-35491955D01*
X86438506Y-35530298D01*
X86475972Y-35589923D01*
X86475973Y-35589925D01*
X86475975Y-35589927D01*
X86603529Y-35717481D01*
X86716493Y-35788461D01*
X86762784Y-35840796D01*
X86774462Y-35889643D01*
X86775855Y-35934936D01*
X86775839Y-35939229D01*
X86436479Y-44751985D01*
X86414230Y-44818218D01*
X86359704Y-44861907D01*
X86290214Y-44869182D01*
X86227822Y-44837733D01*
X86210996Y-44818337D01*
X86132679Y-44706490D01*
X86132674Y-44706483D01*
X85965648Y-44539457D01*
X85772144Y-44403962D01*
X85558058Y-44304133D01*
X85558052Y-44304130D01*
X85344566Y-44246927D01*
X85344566Y-45294544D01*
X85229765Y-45242117D01*
X85128541Y-45227563D01*
X85060591Y-45227563D01*
X84959367Y-45242117D01*
X84844566Y-45294544D01*
X84844566Y-44246927D01*
X84844565Y-44246927D01*
X84631079Y-44304130D01*
X84631073Y-44304133D01*
X84416988Y-44403962D01*
X84416986Y-44403963D01*
X84223492Y-44539449D01*
X84223486Y-44539454D01*
X84056457Y-44706483D01*
X84056452Y-44706489D01*
X83920966Y-44899983D01*
X83920965Y-44899985D01*
X83821136Y-45114070D01*
X83821132Y-45114079D01*
X83759998Y-45342236D01*
X83759996Y-45342246D01*
X83750345Y-45452563D01*
X84690597Y-45452563D01*
X84658047Y-45503212D01*
X84619566Y-45634268D01*
X84619566Y-45770858D01*
X84658047Y-45901914D01*
X84690597Y-45952563D01*
X83750345Y-45952563D01*
X83759996Y-46062879D01*
X83759998Y-46062889D01*
X83821132Y-46291046D01*
X83821136Y-46291055D01*
X83920965Y-46505140D01*
X83920966Y-46505142D01*
X84056452Y-46698636D01*
X84056457Y-46698642D01*
X84223483Y-46865668D01*
X84416987Y-47001163D01*
X84631073Y-47100992D01*
X84631082Y-47100996D01*
X84859239Y-47162130D01*
X84859249Y-47162132D01*
X84986541Y-47173269D01*
X85051609Y-47198722D01*
X85092588Y-47255312D01*
X85096466Y-47325074D01*
X85063414Y-47384478D01*
X85050662Y-47397230D01*
X84989339Y-47430715D01*
X84968367Y-47433432D01*
X84057463Y-47473037D01*
X83989632Y-47456283D01*
X83972477Y-47444232D01*
X83953226Y-47428115D01*
X83243511Y-46833934D01*
X83239490Y-46830255D01*
X82025188Y-45615953D01*
X81991704Y-45554631D01*
X81988871Y-45527782D01*
X82031443Y-34906149D01*
X81964511Y-26067459D01*
X84100000Y-26067459D01*
X84700000Y-26067459D01*
X84700000Y-25467459D01*
X84552155Y-25467459D01*
X84492627Y-25473860D01*
X84492620Y-25473862D01*
X84357913Y-25524104D01*
X84357906Y-25524108D01*
X84242812Y-25610268D01*
X84242809Y-25610271D01*
X84156649Y-25725365D01*
X84156645Y-25725372D01*
X84106403Y-25860079D01*
X84106401Y-25860086D01*
X84100000Y-25919614D01*
X84100000Y-26067459D01*
X81964511Y-26067459D01*
X81961126Y-25620410D01*
X81980302Y-25553225D01*
X81997433Y-25531801D01*
X86446450Y-21082784D01*
X107150106Y-717701D01*
X107211702Y-684724D01*
X107235513Y-682113D01*
X133829481Y-351068D01*
X177167158Y44313271D01*
X177162615Y46686753D01*
X177182171Y46753829D01*
X177234888Y46799685D01*
X177261457Y46808410D01*
X177263035Y46808737D01*
X177319724Y46828106D01*
X177453691Y46890575D01*
X177265983Y47293118D01*
X177263504Y47299272D01*
X177263067Y47300554D01*
X177102137Y47645669D01*
X177653274Y47645669D01*
X177906845Y47101886D01*
X178040823Y47164360D01*
X178092085Y47195328D01*
X178192944Y47297800D01*
X178192945Y47297803D01*
X178260841Y47424525D01*
X178260846Y47424537D01*
X178290293Y47565262D01*
X178278897Y47708589D01*
X178259531Y47765270D01*
X178197058Y47899241D01*
X177653274Y47645669D01*
X177102137Y47645669D01*
X177041666Y47775348D01*
X177031175Y47844420D01*
X177059694Y47908204D01*
X177101644Y47940130D01*
X177380309Y48070074D01*
X177380310Y48070074D01*
X177985748Y48352395D01*
X177985749Y48352396D01*
X177923276Y48486369D01*
X177892307Y48537635D01*
X177789835Y48638494D01*
X177789832Y48638495D01*
X177663110Y48706391D01*
X177663098Y48706396D01*
X177522372Y48735842D01*
X177507545Y48734664D01*
X177439156Y48748973D01*
X177389359Y48797984D01*
X177373966Y48866137D01*
X177397862Y48931793D01*
X177409338Y48945252D01*
X177419959Y48956043D01*
X177487928Y49082904D01*
X177517405Y49223775D01*
X177505999Y49367245D01*
X177486615Y49423978D01*
X177159769Y50124898D01*
X177148152Y50177303D01*
X177148152Y50787604D01*
X177610391Y50787604D01*
X177621787Y50644277D01*
X177641151Y50587603D01*
X177703625Y50453625D01*
X178247409Y50707196D01*
X177993838Y51250979D01*
X177993838Y51250980D01*
X177859865Y51188508D01*
X177808599Y51157538D01*
X177707740Y51055066D01*
X177707739Y51055063D01*
X177639843Y50928341D01*
X177639838Y50928329D01*
X177610391Y50787604D01*
X177148152Y50787604D01*
X177148152Y52008919D01*
X177148683Y52017021D01*
X177153334Y52052347D01*
X177153334Y52052349D01*
X177132696Y52209108D01*
X177132696Y52209110D01*
X177072188Y52355189D01*
X177000102Y52449134D01*
X177000101Y52449134D01*
X176991523Y52460314D01*
X176991521Y52460315D01*
X176975934Y52480630D01*
X176947658Y52502325D01*
X176941568Y52507666D01*
X174335723Y55113511D01*
X174302241Y55174830D01*
X174299421Y55203081D01*
X174309122Y55838518D01*
X174337703Y57710604D01*
X174358409Y57777333D01*
X174411905Y57822277D01*
X174453329Y57832427D01*
X174464297Y57833168D01*
X174464301Y57833168D01*
X174609883Y57858838D01*
X174532754Y58296256D01*
X174531957Y58302831D01*
X174531866Y58304184D01*
X174490893Y58536548D01*
X174998098Y58536548D01*
X175102286Y57945663D01*
X175247871Y57971334D01*
X175305404Y57987980D01*
X175429344Y58060853D01*
X175527730Y58165692D01*
X175527732Y58165696D01*
X175592598Y58294004D01*
X175618689Y58435403D01*
X175614653Y58495158D01*
X175614653Y58495159D01*
X175588983Y58640737D01*
X174998098Y58536548D01*
X174490893Y58536548D01*
X174440894Y58820103D01*
X174448638Y58889536D01*
X174492694Y58943766D01*
X174541478Y58963746D01*
X175502159Y59133140D01*
X175476491Y59278714D01*
X175459842Y59336257D01*
X175386969Y59460197D01*
X175282130Y59558583D01*
X175282126Y59558585D01*
X175153818Y59623451D01*
X175146884Y59625790D01*
X175089648Y59665862D01*
X175063163Y59730517D01*
X175062536Y59746116D01*
X175063010Y59766781D01*
X175084223Y59833348D01*
X175109551Y59860794D01*
X175111879Y59862655D01*
X175210368Y59967602D01*
X175210370Y59967604D01*
X175275303Y60096046D01*
X175301417Y60237579D01*
X175297378Y60297396D01*
X175170026Y61019640D01*
X175802778Y61019640D01*
X175806812Y60959899D01*
X175806813Y60959890D01*
X175832484Y60814307D01*
X176423368Y60918495D01*
X176319179Y61509381D01*
X176173606Y61483713D01*
X176116063Y61467064D01*
X175992123Y61394191D01*
X175893737Y61289352D01*
X175893735Y61289348D01*
X175828869Y61161040D01*
X175802778Y61019641D01*
X175802778Y61019640D01*
X175170026Y61019640D01*
X175159197Y61081052D01*
X175142535Y61138645D01*
X175114154Y61186912D01*
X175097081Y61252598D01*
X175148905Y63512667D01*
X175152040Y63537668D01*
X175715809Y65983803D01*
X176038771Y67385103D01*
X176334913Y68670035D01*
X177319450Y68670035D01*
X177357710Y68527250D01*
X177357715Y68527232D01*
X177379305Y68471386D01*
X177462708Y68354262D01*
X177462709Y68354261D01*
X177575724Y68265387D01*
X177709197Y68211951D01*
X177709206Y68211949D01*
X177852324Y68198282D01*
X177852327Y68198283D01*
X177911500Y68207511D01*
X177911511Y68207513D01*
X178054295Y68245772D01*
X177899004Y68825326D01*
X177319450Y68670035D01*
X176334913Y68670035D01*
X176452932Y69182108D01*
X176487169Y69243014D01*
X176548900Y69275741D01*
X176573764Y69278259D01*
X177061328Y69278259D01*
X177128367Y69258574D01*
X177174122Y69205770D01*
X177181103Y69186353D01*
X177190040Y69152999D01*
X177619056Y69267953D01*
X177625525Y69269321D01*
X177626864Y69269530D01*
X177626884Y69269534D01*
X178132911Y69405124D01*
X178202761Y69403461D01*
X178260624Y69364299D01*
X178284780Y69317443D01*
X178537259Y68375182D01*
X178680046Y68413442D01*
X178680063Y68413447D01*
X178735909Y68435037D01*
X178853033Y68518440D01*
X178853034Y68518441D01*
X178941908Y68631456D01*
X178995344Y68764929D01*
X178995344Y68764931D01*
X178996759Y68779744D01*
X179022727Y68844609D01*
X179079640Y68885138D01*
X179149431Y68888463D01*
X179209940Y68853529D01*
X179221205Y68839886D01*
X179229985Y68827555D01*
X179229988Y68827552D01*
X179343116Y68738589D01*
X179476727Y68685098D01*
X179619998Y68671418D01*
X179619999Y68671418D01*
X179633422Y68673511D01*
X179679234Y68680655D01*
X179822475Y68719036D01*
X180447867Y68886611D01*
X180452658Y68888463D01*
X180503786Y68908228D01*
X180503788Y68908229D01*
X180621024Y68991711D01*
X180621026Y68991713D01*
X180621027Y68991714D01*
X180709990Y69104842D01*
X180742623Y69186353D01*
X180763482Y69238455D01*
X180777162Y69381725D01*
X180767924Y69440963D01*
X180735850Y69560662D01*
X180737513Y69630510D01*
X180767944Y69680435D01*
X184353726Y73266217D01*
X184359829Y73271570D01*
X184388101Y73293264D01*
X184388104Y73293266D01*
X184484358Y73418707D01*
X184544866Y73564786D01*
X184560322Y73682187D01*
X184565504Y73721548D01*
X184560852Y73756877D01*
X184560322Y73764976D01*
X184560322Y79853680D01*
X184937689Y79853680D01*
X185076598Y79803122D01*
X185134752Y79788769D01*
X185278521Y79789910D01*
X185416149Y79831511D01*
X185416150Y79831511D01*
X185536484Y79910199D01*
X185536486Y79910202D01*
X185629775Y80019605D01*
X185656154Y80073365D01*
X185656161Y80073382D01*
X185706717Y80212283D01*
X185142901Y80417495D01*
X184937689Y79853680D01*
X184560322Y79853680D01*
X184560322Y80256908D01*
X184567800Y80299318D01*
X184619752Y80442058D01*
X184622361Y80448181D01*
X184622949Y80449379D01*
X184622952Y80449387D01*
X184623546Y80451019D01*
X184802124Y80941661D01*
X184843549Y80997923D01*
X184908818Y81022859D01*
X184961055Y81015771D01*
X185877727Y80682129D01*
X185928287Y80821043D01*
X185942639Y80879193D01*
X185941498Y81022962D01*
X185899897Y81160590D01*
X185899897Y81160591D01*
X185821209Y81280925D01*
X185821207Y81280927D01*
X185809892Y81290575D01*
X185771650Y81349049D01*
X185771092Y81418917D01*
X185808396Y81477995D01*
X185871717Y81507526D01*
X185889357Y81508929D01*
X185904492Y81509049D01*
X186042260Y81550691D01*
X186162712Y81629458D01*
X186162716Y81629461D01*
X186186610Y81657482D01*
X186256098Y81738973D01*
X186282508Y81792797D01*
X186438459Y82221269D01*
X187256483Y82221269D01*
X187820299Y82016057D01*
X188025511Y82579871D01*
X187886594Y82630434D01*
X187828449Y82644784D01*
X187684680Y82643643D01*
X187547052Y82602042D01*
X187547051Y82602042D01*
X187426717Y82523354D01*
X187426715Y82523351D01*
X187333426Y82413948D01*
X187307047Y82360188D01*
X187307040Y82360171D01*
X187256483Y82221269D01*
X186438459Y82221269D01*
X186554668Y82540553D01*
X186569034Y82598760D01*
X186567893Y82742678D01*
X186526251Y82880444D01*
X186519833Y82890257D01*
X186499615Y82957133D01*
X186511483Y83011069D01*
X186670990Y83348855D01*
X186220075Y89005777D01*
X186219880Y89010701D01*
X186219880Y91327843D01*
X186220411Y91335945D01*
X186225062Y91371271D01*
X186225062Y91371273D01*
X186211710Y91472691D01*
X186204424Y91528034D01*
X186145798Y91669569D01*
X186556345Y91669569D01*
X186608638Y91071853D01*
X186608639Y91071852D01*
X186755899Y91084736D01*
X186755913Y91084738D01*
X186814667Y91096304D01*
X186944491Y91158101D01*
X187051641Y91253966D01*
X187127447Y91376141D01*
X187127448Y91376143D01*
X187165759Y91514714D01*
X187166946Y91574609D01*
X187154061Y91721862D01*
X186556345Y91669570D01*
X186556345Y91669569D01*
X186145798Y91669569D01*
X186143916Y91674113D01*
X186125190Y91698517D01*
X186118731Y91706934D01*
X186107277Y91721862D01*
X186065038Y91776907D01*
X186039887Y91841581D01*
X186025974Y92000608D01*
X186039740Y92069104D01*
X186088356Y92119287D01*
X186138695Y92134940D01*
X186461110Y92163148D01*
X186461117Y92163148D01*
X187110485Y92219959D01*
X187110485Y92219960D01*
X187097601Y92367227D01*
X187086034Y92425988D01*
X187024237Y92555812D01*
X186928372Y92662962D01*
X186806197Y92738768D01*
X186806198Y92738768D01*
X186791864Y92742731D01*
X186732493Y92779566D01*
X186702462Y92842653D01*
X186711305Y92911961D01*
X186756215Y92965485D01*
X186771609Y92974211D01*
X186785273Y92980715D01*
X186785275Y92980716D01*
X186892534Y93076679D01*
X186968414Y93198973D01*
X187006765Y93337691D01*
X187007955Y93397633D01*
X186938600Y94190350D01*
X186927021Y94249176D01*
X186913677Y94277210D01*
X187659103Y94277210D01*
X187671986Y94129956D01*
X188269703Y94182249D01*
X188269703Y94182250D01*
X188217410Y94779967D01*
X188070143Y94767083D01*
X188011382Y94755516D01*
X187881558Y94693719D01*
X187774408Y94597854D01*
X187698602Y94475679D01*
X187698601Y94475677D01*
X187660290Y94337106D01*
X187659103Y94277210D01*
X186913677Y94277210D01*
X186865164Y94379127D01*
X186769201Y94486386D01*
X186702018Y94528071D01*
X186655433Y94580140D01*
X186651395Y94602519D01*
X186642223Y94625440D01*
X186642221Y94625440D01*
X186642222Y94625442D01*
X181832850Y98862436D01*
X181830041Y98865072D01*
X181729204Y98965910D01*
X181695722Y99027229D01*
X181692937Y99050131D01*
X181600792Y102365560D01*
X181618606Y102433120D01*
X181670119Y102480324D01*
X181724744Y102493004D01*
X181848196Y102493004D01*
X181848196Y102937150D01*
X181848551Y102943781D01*
X181848695Y102945126D01*
X181848696Y102945131D01*
X181848696Y103093004D01*
X182348196Y103093004D01*
X182348196Y102493004D01*
X182496040Y102493004D01*
X182555568Y102499405D01*
X182555575Y102499407D01*
X182690282Y102549649D01*
X182690289Y102549653D01*
X182805383Y102635813D01*
X182805386Y102635816D01*
X182891546Y102750910D01*
X182891550Y102750917D01*
X182941792Y102885624D01*
X182941794Y102885631D01*
X182948195Y102945159D01*
X182948196Y102945176D01*
X182948196Y103093004D01*
X182348196Y103093004D01*
X181848696Y103093004D01*
X181848695Y103469005D01*
X181868379Y103536043D01*
X181921183Y103581798D01*
X181972695Y103593004D01*
X182948196Y103593004D01*
X182948196Y103740831D01*
X182948195Y103740848D01*
X182941794Y103800376D01*
X182941792Y103800383D01*
X182891550Y103935090D01*
X182891546Y103935097D01*
X182805386Y104050191D01*
X182805383Y104050194D01*
X182690289Y104136354D01*
X182690282Y104136358D01*
X182676351Y104141554D01*
X182620416Y104183424D01*
X182595997Y104248888D01*
X182610847Y104317161D01*
X182660251Y104366568D01*
X182676347Y104373919D01*
X182690526Y104379207D01*
X182690531Y104379210D01*
X182805740Y104465456D01*
X182805743Y104465459D01*
X182891989Y104580668D01*
X182891993Y104580675D01*
X182942287Y104715521D01*
X182943365Y104725552D01*
X182948696Y104775131D01*
X182948695Y105373425D01*
X183519579Y105373425D01*
X184119579Y105373425D01*
X184119579Y105973425D01*
X183971751Y105973425D01*
X183971734Y105973424D01*
X183912206Y105967023D01*
X183912199Y105967021D01*
X183777492Y105916779D01*
X183777485Y105916775D01*
X183662391Y105830615D01*
X183662388Y105830612D01*
X183576228Y105715518D01*
X183576224Y105715511D01*
X183525982Y105580804D01*
X183525980Y105580797D01*
X183519579Y105521269D01*
X183519579Y105373425D01*
X182948695Y105373425D01*
X182948695Y105570876D01*
X182942287Y105630487D01*
X182891992Y105765335D01*
X182805742Y105880550D01*
X182690527Y105966800D01*
X182689934Y105967021D01*
X182626566Y105990656D01*
X182570632Y106032526D01*
X182546214Y106097990D01*
X182545899Y106106374D01*
X182528219Y111031333D01*
X181499521Y117147979D01*
X181507815Y117217349D01*
X181533980Y117249040D01*
X182124423Y117249040D01*
X182271678Y117236157D01*
X182331573Y117237344D01*
X182470144Y117275655D01*
X182470146Y117275656D01*
X182592321Y117351462D01*
X182688186Y117458612D01*
X182749983Y117588436D01*
X182761550Y117647197D01*
X182774434Y117794464D01*
X182176717Y117846757D01*
X182176716Y117846757D01*
X182124423Y117249040D01*
X181533980Y117249040D01*
X181552299Y117271228D01*
X181618850Y117292504D01*
X181625923Y117292279D01*
X181626327Y117292618D01*
X181665037Y117735088D01*
X181665972Y117741675D01*
X181666230Y117742982D01*
X181711887Y118264864D01*
X181737338Y118329929D01*
X181793929Y118370908D01*
X181846221Y118377581D01*
X182141598Y118351740D01*
X182141601Y118351738D01*
X182818010Y118292560D01*
X182830895Y118439814D01*
X182829708Y118499710D01*
X182791397Y118638281D01*
X182791396Y118638283D01*
X182715590Y118760458D01*
X182608440Y118856323D01*
X182608441Y118856323D01*
X182595010Y118862716D01*
X182542936Y118909301D01*
X182524316Y118976644D01*
X182545059Y119043363D01*
X182598580Y119088277D01*
X182615256Y119094197D01*
X182629844Y119098230D01*
X182629846Y119098231D01*
X182752140Y119174111D01*
X182848103Y119281370D01*
X182909960Y119411321D01*
X182921540Y119470146D01*
X182986346Y120210896D01*
X183460385Y120210896D01*
X183460386Y120210895D01*
X184058102Y120158602D01*
X184058103Y120158602D01*
X184110396Y120756318D01*
X183963138Y120769202D01*
X183903247Y120768016D01*
X183764676Y120729705D01*
X183764674Y120729704D01*
X183642499Y120653898D01*
X183546634Y120546748D01*
X183484837Y120416924D01*
X183473271Y120358170D01*
X183473269Y120358156D01*
X183460385Y120210896D01*
X182986346Y120210896D01*
X182990892Y120262863D01*
X182989704Y120322806D01*
X182951353Y120461524D01*
X182875473Y120583818D01*
X182871067Y120587759D01*
X182834226Y120647123D01*
X182832226Y120704882D01*
X182855299Y120818352D01*
X183312783Y126337393D01*
X183337938Y126402578D01*
X183359584Y126424523D01*
X184682425Y127467532D01*
X184710386Y127484147D01*
X184751805Y127501884D01*
X184777292Y127512798D01*
X184888273Y127604433D01*
X184921969Y127650580D01*
X184945337Y127674828D01*
X185211936Y127885031D01*
X185211937Y127885032D01*
X185224372Y128146190D01*
X185240845Y128202289D01*
X185321502Y128341992D01*
X185328593Y128358021D01*
X185345756Y128396816D01*
X185354587Y128449333D01*
X185385115Y128512181D01*
X185397920Y128524391D01*
X185437901Y128557402D01*
X185473214Y128605763D01*
X185547131Y128733790D01*
X185547131Y128733791D01*
X185162464Y128955878D01*
X185156902Y128959503D01*
X185155828Y128960288D01*
X184702137Y129222225D01*
X184653925Y129272790D01*
X184640701Y129341397D01*
X184656753Y129391610D01*
X184700166Y129466803D01*
X185277515Y129466803D01*
X185797130Y129166804D01*
X185871044Y129294823D01*
X185895274Y129349596D01*
X185895276Y129349602D01*
X185919117Y129491384D01*
X185919118Y129491386D01*
X185902047Y129634146D01*
X185845449Y129766319D01*
X185753909Y129877186D01*
X185753905Y129877189D01*
X185705540Y129912505D01*
X185705535Y129912508D01*
X185577516Y129986419D01*
X185577515Y129986419D01*
X185277515Y129466804D01*
X185277515Y129466803D01*
X184700166Y129466803D01*
X185144502Y130236418D01*
X185016476Y130310335D01*
X184961711Y130334562D01*
X184961705Y130334564D01*
X184819923Y130358405D01*
X184819921Y130358406D01*
X184677161Y130341335D01*
X184544991Y130284738D01*
X184533520Y130275267D01*
X184469291Y130247763D01*
X184400389Y130259349D01*
X184348689Y130306348D01*
X184330605Y130373837D01*
X184332286Y130391442D01*
X184334797Y130406374D01*
X184317710Y130549278D01*
X184261056Y130681580D01*
X184169421Y130792561D01*
X184158685Y130800400D01*
X184121010Y130827910D01*
X184121002Y130827916D01*
X183431866Y131225788D01*
X183377038Y131250044D01*
X183235108Y131273911D01*
X183235107Y131273910D01*
X183235107Y131273911D01*
X183212649Y131271225D01*
X183092204Y131256824D01*
X183092201Y131256823D01*
X183092198Y131256822D01*
X182987650Y131212052D01*
X182959902Y131200170D01*
X182959897Y131200166D01*
X182957462Y131198682D01*
X182954695Y131197940D01*
X182951749Y131196679D01*
X182951567Y131197102D01*
X182889973Y131180598D01*
X182823421Y131201872D01*
X182820660Y131203797D01*
X181681051Y132022554D01*
X181681049Y132022553D01*
X181652169Y132026142D01*
X181631858Y132024306D01*
X181569917Y132056634D01*
X181535286Y132117317D01*
X181538961Y132187090D01*
X181554361Y132217069D01*
X181637584Y132335924D01*
X181637590Y132335933D01*
X181666500Y132388383D01*
X181666501Y132388386D01*
X181702610Y132527549D01*
X181698047Y132671260D01*
X181698047Y132671261D01*
X181653187Y132807855D01*
X181653183Y132807863D01*
X181571657Y132926281D01*
X181571656Y132926283D01*
X181526544Y132965687D01*
X181405452Y133050475D01*
X180845929Y132251393D01*
X180791352Y132207768D01*
X180721854Y132200575D01*
X180673235Y132220939D01*
X180466802Y132365484D01*
X180423180Y132420059D01*
X180415986Y132489557D01*
X180436353Y132538181D01*
X180995877Y133337264D01*
X180874792Y133422049D01*
X180874783Y133422055D01*
X180822333Y133450965D01*
X180822330Y133450966D01*
X180683166Y133487074D01*
X180539456Y133482512D01*
X180539455Y133482512D01*
X180402861Y133437652D01*
X180402854Y133437649D01*
X180390605Y133429216D01*
X180324225Y133407413D01*
X180256594Y133424960D01*
X180209186Y133476286D01*
X180197053Y133545094D01*
X180200260Y133562481D01*
X180204065Y133577142D01*
X180199497Y133720992D01*
X180154590Y133857729D01*
X180072977Y133976273D01*
X180027823Y134015714D01*
X179658738Y134274150D01*
X179375996Y134472128D01*
X179375994Y134472128D01*
X179375987Y134472134D01*
X179323481Y134501076D01*
X179184172Y134537223D01*
X179040322Y134532655D01*
X179040319Y134532654D01*
X178904976Y134488205D01*
X178882234Y134484188D01*
X178837830Y134459942D01*
X178768138Y134464926D01*
X178731327Y134490173D01*
X178729537Y134488124D01*
X178678586Y134532628D01*
X178557494Y134617416D01*
X178250385Y134178817D01*
X178196263Y134135379D01*
X178188781Y134132280D01*
X178188780Y134132280D01*
X178042701Y134071772D01*
X177917260Y133975518D01*
X177917258Y133975515D01*
X177895564Y133947243D01*
X177890211Y133941140D01*
X177846900Y133897829D01*
X177785577Y133864344D01*
X177715885Y133869328D01*
X177688098Y133883933D01*
X177618845Y133932425D01*
X177575222Y133986999D01*
X177568028Y134056498D01*
X177588395Y134105122D01*
X178147919Y134904205D01*
X178026834Y134988990D01*
X178026825Y134988996D01*
X177974375Y135017906D01*
X177974372Y135017907D01*
X177835208Y135054015D01*
X177691499Y135049453D01*
X177600639Y135019613D01*
X177530805Y135017397D01*
X177477277Y135046832D01*
X177393204Y135125422D01*
X177357676Y135185576D01*
X177353948Y135212056D01*
X177351539Y135287933D01*
X177306632Y135424670D01*
X177225019Y135543214D01*
X177179865Y135582655D01*
X176767031Y135871724D01*
X176528038Y136039069D01*
X176528036Y136039069D01*
X176528029Y136039075D01*
X176475523Y136068017D01*
X176336214Y136104164D01*
X176192364Y136099596D01*
X176150417Y136085819D01*
X176080585Y136083603D01*
X176043015Y136100408D01*
X175709864Y136322205D01*
X175709863Y136322204D01*
X175289043Y135939492D01*
X175226203Y135908949D01*
X175156825Y135917229D01*
X175114663Y135946944D01*
X173841966Y137320449D01*
X176795403Y137320449D01*
X176799966Y137176738D01*
X176799966Y137176737D01*
X176844826Y137040143D01*
X176844830Y137040135D01*
X176926356Y136921717D01*
X176926357Y136921715D01*
X176971470Y136882310D01*
X177092559Y136797522D01*
X177092560Y136797522D01*
X177436705Y137289013D01*
X177436704Y137289014D01*
X176945214Y137633160D01*
X176945213Y137633160D01*
X176860429Y137512074D01*
X176860423Y137512065D01*
X176831513Y137459615D01*
X176831512Y137459612D01*
X176795403Y137320449D01*
X173841966Y137320449D01*
X172298271Y138986417D01*
X172267147Y139048965D01*
X172267113Y139092225D01*
X172293255Y139240483D01*
X171855852Y139317609D01*
X171849395Y139319108D01*
X171848085Y139319488D01*
X171848066Y139319491D01*
X171848064Y139319492D01*
X171750603Y139336676D01*
X171332166Y139410457D01*
X171269567Y139441482D01*
X171233676Y139501429D01*
X171231586Y139554105D01*
X171281482Y139837075D01*
X171789195Y139837075D01*
X172380080Y139732886D01*
X172405750Y139878465D01*
X172405750Y139878466D01*
X172409786Y139938221D01*
X172383695Y140079620D01*
X172318829Y140207928D01*
X172318827Y140207932D01*
X172220441Y140312771D01*
X172096501Y140385644D01*
X172038958Y140402293D01*
X171893384Y140427961D01*
X171789195Y139837075D01*
X171281482Y139837075D01*
X171296792Y139923902D01*
X171400981Y140514785D01*
X171255403Y140540455D01*
X171195646Y140544490D01*
X171054248Y140518400D01*
X170925940Y140453534D01*
X170925936Y140453532D01*
X170821097Y140355146D01*
X170813556Y140342320D01*
X170762607Y140294507D01*
X170693898Y140281829D01*
X170629241Y140308311D01*
X170589166Y140365545D01*
X170584724Y140382660D01*
X170581977Y140397554D01*
X170517044Y140525996D01*
X170418556Y140630942D01*
X170294491Y140703889D01*
X170236899Y140720552D01*
X169453243Y140858731D01*
X169393425Y140862771D01*
X169251892Y140836657D01*
X169123450Y140771724D01*
X169123449Y140771723D01*
X169123373Y140771670D01*
X169123284Y140771640D01*
X169115536Y140767723D01*
X169114972Y140768837D01*
X169057167Y140749342D01*
X169012753Y140755704D01*
X168722333Y140853318D01*
X159158319Y140558802D01*
X159090710Y140576413D01*
X159043352Y140627783D01*
X159030979Y140693549D01*
X159041954Y140818998D01*
X158599478Y140857708D01*
X158592900Y140858643D01*
X158591591Y140858901D01*
X158069709Y140904558D01*
X158004642Y140930010D01*
X157963663Y140986601D01*
X157956990Y141038894D01*
X157983360Y141340299D01*
X157985905Y141369387D01*
X158487814Y141369387D01*
X159085530Y141317094D01*
X159098415Y141464348D01*
X159097228Y141524244D01*
X159058917Y141662815D01*
X159058916Y141662817D01*
X158983110Y141784992D01*
X158875960Y141880857D01*
X158875961Y141880857D01*
X158746390Y141942533D01*
X169003660Y141942533D01*
X169029751Y141801134D01*
X169094617Y141672826D01*
X169094619Y141672822D01*
X169193005Y141567983D01*
X169316945Y141495110D01*
X169374478Y141478464D01*
X169520062Y141452793D01*
X169624250Y142043678D01*
X169033365Y142147867D01*
X169007695Y142002284D01*
X169007694Y142002275D01*
X169003660Y141942534D01*
X169003660Y141942533D01*
X158746390Y141942533D01*
X158746136Y141942654D01*
X158687375Y141954221D01*
X158540108Y141967105D01*
X158540107Y141967105D01*
X158487814Y141369388D01*
X158487814Y141369387D01*
X157985905Y141369387D01*
X157989718Y141412967D01*
X158042011Y142010681D01*
X157894753Y142023565D01*
X157834862Y142022379D01*
X157696291Y141984068D01*
X157696289Y141984067D01*
X157574114Y141908261D01*
X157478249Y141801111D01*
X157471854Y141787676D01*
X157425267Y141735605D01*
X157357923Y141716987D01*
X157291205Y141737732D01*
X157246293Y141791256D01*
X157240374Y141807932D01*
X157236342Y141822517D01*
X157160462Y141944811D01*
X157053203Y142040774D01*
X156923252Y142102631D01*
X156864427Y142114211D01*
X156071710Y142183563D01*
X156011767Y142182375D01*
X155873049Y142144024D01*
X155750755Y142068144D01*
X155750751Y142068140D01*
X155743962Y142062444D01*
X155741618Y142065237D01*
X155696867Y142037529D01*
X155653361Y142033528D01*
X143183733Y143101061D01*
X143132242Y143117263D01*
X142575899Y143438998D01*
X155736416Y143438998D01*
X155737603Y143379102D01*
X155775914Y143240531D01*
X155775915Y143240529D01*
X155851721Y143118354D01*
X155958871Y143022489D01*
X155958870Y143022489D01*
X156088695Y142960692D01*
X156147449Y142949126D01*
X156147463Y142949124D01*
X156294722Y142936240D01*
X156294723Y142936241D01*
X156347016Y143533957D01*
X156347016Y143533958D01*
X155749299Y143586251D01*
X155736416Y143438998D01*
X142575899Y143438998D01*
X142058061Y143738465D01*
X141761056Y143987682D01*
X141756219Y143992206D01*
X141755294Y143993170D01*
X141353980Y144329911D01*
X141315281Y144388077D01*
X141314172Y144457938D01*
X141320964Y144470860D01*
X141963088Y144470860D01*
X142422715Y144085186D01*
X142422716Y144085186D01*
X142517729Y144198417D01*
X142517742Y144198435D01*
X142551111Y144248162D01*
X142599213Y144383656D01*
X142607192Y144527211D01*
X142574404Y144667204D01*
X142574403Y144667208D01*
X142503508Y144792282D01*
X142503506Y144792284D01*
X142462010Y144835458D01*
X142461999Y144835469D01*
X142348762Y144930487D01*
X141963088Y144470860D01*
X141320964Y144470860D01*
X141338699Y144504602D01*
X141965739Y145251880D01*
X141852509Y145346893D01*
X141852492Y145346906D01*
X141802765Y145380275D01*
X141667269Y145428377D01*
X141667273Y145428377D01*
X141523716Y145436356D01*
X141383723Y145403568D01*
X141370785Y145396235D01*
X141302756Y145380301D01*
X141236913Y145403676D01*
X141194159Y145458938D01*
X141188069Y145528542D01*
X141192780Y145545586D01*
X141197847Y145559857D01*
X141205834Y145703557D01*
X141173015Y145843687D01*
X141102045Y145968894D01*
X141060500Y146012120D01*
X140450924Y146523614D01*
X140401140Y146557023D01*
X140265511Y146605173D01*
X140154157Y146611362D01*
X140088316Y146634735D01*
X139820840Y146829253D01*
X139820839Y146829252D01*
X139820839Y146829253D01*
X139820838Y146829253D01*
X139460177Y146813060D01*
X136038000Y146659411D01*
X135970147Y146676069D01*
X135948480Y146692035D01*
X131663033Y150635383D01*
X128101687Y154196728D01*
X128068204Y154258049D01*
X128073188Y154327741D01*
X128115060Y154383674D01*
X128136076Y154396370D01*
X128155503Y154405617D01*
X128155504Y154405618D01*
X128262654Y154501483D01*
X128338460Y154623658D01*
X128338461Y154623660D01*
X128376772Y154762231D01*
X128377959Y154822126D01*
X128365074Y154969380D01*
X127469988Y154891069D01*
X127401488Y154904836D01*
X127371505Y154926910D01*
X127286798Y155011617D01*
X127253316Y155072939D01*
X127250954Y155088488D01*
X127236987Y155248125D01*
X127250753Y155316621D01*
X127299368Y155366804D01*
X127349708Y155382457D01*
X128321498Y155467476D01*
X128321498Y155467477D01*
X128308614Y155614744D01*
X128297047Y155673505D01*
X128235250Y155803329D01*
X128139383Y155910481D01*
X128017214Y155986284D01*
X128002877Y155990248D01*
X127943506Y156027083D01*
X127913475Y156090170D01*
X127922318Y156159478D01*
X127967228Y156213002D01*
X127982622Y156221728D01*
X127996286Y156228232D01*
X127996288Y156228233D01*
X128062453Y156287430D01*
X128103545Y156324194D01*
X128103547Y156324196D01*
X128179427Y156446490D01*
X128217778Y156585208D01*
X128218968Y156645150D01*
X128149613Y157437867D01*
X128138034Y157496693D01*
X128076177Y157626644D01*
X127980214Y157733903D01*
X127857920Y157809783D01*
X127719202Y157848134D01*
X127659260Y157849324D01*
X127659248Y157849322D01*
X127659247Y157849323D01*
X127615982Y157845537D01*
X127390475Y157825807D01*
X127321978Y157839573D01*
X127291992Y157861651D01*
X126999242Y158154401D01*
X126993972Y158160403D01*
X126470105Y158841430D01*
X126444834Y158906567D01*
X126444392Y158917032D01*
X126444392Y171248514D01*
X126464077Y171315553D01*
X126475204Y171325195D01*
X127114672Y171325195D01*
X127261927Y171312312D01*
X127321822Y171313499D01*
X127460393Y171351810D01*
X127460395Y171351811D01*
X127582570Y171427617D01*
X127678435Y171534767D01*
X127740232Y171664591D01*
X127751799Y171723352D01*
X127764683Y171870619D01*
X127166966Y171922912D01*
X127166965Y171922912D01*
X127114672Y171325195D01*
X126475204Y171325195D01*
X126516881Y171361308D01*
X126579199Y171372042D01*
X126616574Y171368772D01*
X126616576Y171368773D01*
X126655286Y171811243D01*
X126656221Y171817830D01*
X126656479Y171819137D01*
X126702136Y172341019D01*
X126727587Y172406084D01*
X126784178Y172447063D01*
X126836470Y172453736D01*
X127131847Y172427895D01*
X127131850Y172427893D01*
X127808259Y172368715D01*
X127821144Y172515969D01*
X127819957Y172575865D01*
X127781646Y172714436D01*
X127781645Y172714438D01*
X127705839Y172836613D01*
X127598689Y172932478D01*
X127598690Y172932478D01*
X127585259Y172938871D01*
X127533185Y172985456D01*
X127514565Y173052799D01*
X127535308Y173119518D01*
X127588829Y173164432D01*
X127605505Y173170352D01*
X127620093Y173174385D01*
X127643140Y173188685D01*
X127742389Y173250266D01*
X127838352Y173357525D01*
X127900209Y173487476D01*
X127911789Y173546301D01*
X127940351Y173872775D01*
X127981140Y174339004D01*
X127981139Y174339006D01*
X127981141Y174339018D01*
X127980509Y174370872D01*
X128750693Y174370872D01*
X128750694Y174370871D01*
X129348410Y174318578D01*
X129348411Y174318578D01*
X129400704Y174916294D01*
X129253446Y174929178D01*
X129193555Y174927992D01*
X129054984Y174889681D01*
X129054982Y174889680D01*
X128932807Y174813874D01*
X128836942Y174706724D01*
X128775145Y174576900D01*
X128763579Y174518146D01*
X128763577Y174518132D01*
X128750693Y174370872D01*
X127980509Y174370872D01*
X127980266Y174383151D01*
X127995110Y174444479D01*
X128016578Y174484271D01*
X128013119Y174872718D01*
X127973462Y179326908D01*
X127973462Y179326909D01*
X126397900Y180792547D01*
X126362227Y180852613D01*
X126364691Y180922440D01*
X126381605Y180952430D01*
X126380317Y180953277D01*
X126384574Y180959760D01*
X126410955Y181013522D01*
X126410962Y181013539D01*
X126461518Y181152440D01*
X126461517Y181152441D01*
X126044130Y181304358D01*
X126038038Y181306954D01*
X126036829Y181307548D01*
X125544544Y181486724D01*
X125488285Y181528147D01*
X125463349Y181593415D01*
X125470437Y181645654D01*
X125536624Y181827499D01*
X126068713Y181827499D01*
X126632528Y181622287D01*
X126683088Y181761200D01*
X126697440Y181819350D01*
X126696299Y181963119D01*
X126654698Y182100747D01*
X126654698Y182100748D01*
X126576010Y182221082D01*
X126576007Y182221084D01*
X126466604Y182314373D01*
X126412844Y182340752D01*
X126412827Y182340759D01*
X126273925Y182391315D01*
X126068713Y181827499D01*
X125536624Y181827499D01*
X125598867Y181998510D01*
X125804078Y182562324D01*
X125665161Y182612887D01*
X125607016Y182627237D01*
X125463247Y182626096D01*
X125325619Y182584495D01*
X125325618Y182584495D01*
X125296647Y182565550D01*
X125229766Y182545335D01*
X125162572Y182564488D01*
X125131708Y182592179D01*
X125096340Y182636680D01*
X125096340Y182636681D01*
X125068329Y182633853D01*
X124999656Y182646705D01*
X124948829Y182694646D01*
X124937184Y182721346D01*
X124935518Y182726859D01*
X124856750Y182847313D01*
X124747237Y182940696D01*
X124693413Y182967106D01*
X123945657Y183239266D01*
X123887450Y183253632D01*
X123887446Y183253631D01*
X123887446Y183253632D01*
X123772315Y183252719D01*
X123743532Y183252491D01*
X123605766Y183210849D01*
X123485312Y183132081D01*
X123391929Y183022568D01*
X123390906Y183020483D01*
X123365519Y182968745D01*
X123331987Y182876616D01*
X123290951Y182820651D01*
X123208414Y182757318D01*
X123175756Y182732259D01*
X123154061Y182703985D01*
X123148708Y182697882D01*
X122893230Y182442404D01*
X122831907Y182408919D01*
X122818009Y182406713D01*
X121957263Y182319832D01*
X120479374Y181701673D01*
X120440641Y181692406D01*
X109839824Y180911609D01*
X109771522Y180926316D01*
X109722012Y180975616D01*
X109706718Y181035274D01*
X109706718Y181103193D01*
X109262563Y181103193D01*
X109255931Y181103548D01*
X109254591Y181103693D01*
X108730716Y181103692D01*
X108663679Y181123376D01*
X108617924Y181176180D01*
X108606718Y181227692D01*
X108606718Y182203193D01*
X109106718Y182203193D01*
X109106718Y181603193D01*
X109706718Y181603193D01*
X109706718Y181751020D01*
X109706717Y181751037D01*
X109700316Y181810565D01*
X109700314Y181810572D01*
X109650072Y181945279D01*
X109650068Y181945286D01*
X109563908Y182060380D01*
X109563905Y182060383D01*
X109448811Y182146543D01*
X109448804Y182146547D01*
X109314097Y182196789D01*
X109314090Y182196791D01*
X109254562Y182203192D01*
X109254546Y182203193D01*
X109106718Y182203193D01*
X108606718Y182203193D01*
X108458890Y182203193D01*
X108458873Y182203192D01*
X108399345Y182196791D01*
X108399338Y182196789D01*
X108264631Y182146547D01*
X108264624Y182146543D01*
X108149530Y182060383D01*
X108149527Y182060380D01*
X108063367Y181945286D01*
X108063362Y181945276D01*
X108058165Y181931343D01*
X108016293Y181875410D01*
X107950829Y181850994D01*
X107882556Y181865847D01*
X107833151Y181915252D01*
X107825801Y181931349D01*
X107820516Y181945520D01*
X107820511Y181945528D01*
X107807342Y181963119D01*
X107734264Y182060739D01*
X107619049Y182146989D01*
X107484201Y182197284D01*
X107424591Y182203693D01*
X106628846Y182203692D01*
X106580475Y182198492D01*
X106569234Y182197284D01*
X106434389Y182146990D01*
X106434382Y182146986D01*
X106367697Y182097065D01*
X106319172Y182060739D01*
X106319170Y182060737D01*
X106319167Y182060734D01*
X106310469Y182049114D01*
X106254536Y182007242D01*
X106184844Y182002258D01*
X106123521Y182035742D01*
X106090036Y182097065D01*
X106087616Y182133539D01*
X106139154Y182762975D01*
X106164243Y182828184D01*
X106220605Y182869477D01*
X106290344Y182873743D01*
X106338942Y182846885D01*
X106340375Y182848798D01*
X106462569Y182757322D01*
X106462576Y182757318D01*
X106597283Y182707076D01*
X106597290Y182707074D01*
X106656818Y182700673D01*
X106804663Y182700673D01*
X106804663Y183676173D01*
X106824348Y183743212D01*
X106877152Y183788967D01*
X106928663Y183800173D01*
X107180663Y183800173D01*
X107247702Y183780488D01*
X107293457Y183727684D01*
X107304663Y183676173D01*
X107304663Y182700673D01*
X107452507Y182700673D01*
X107512035Y182707074D01*
X107512042Y182707076D01*
X107646749Y182757318D01*
X107646756Y182757322D01*
X107761850Y182843482D01*
X107761853Y182843485D01*
X107848013Y182958579D01*
X107848018Y182958588D01*
X107853214Y182972519D01*
X107895084Y183028453D01*
X107960548Y183052871D01*
X108028821Y183038020D01*
X108078227Y182988615D01*
X108085577Y182972522D01*
X108090864Y182958347D01*
X108090869Y182958337D01*
X108177115Y182843128D01*
X108177118Y182843125D01*
X108292327Y182756879D01*
X108292334Y182756875D01*
X108427180Y182706581D01*
X108427179Y182706581D01*
X108486779Y182700174D01*
X108486782Y182700173D01*
X108486790Y182700173D01*
X108486797Y182700173D01*
X108486798Y182700173D01*
X109282533Y182700173D01*
X109282539Y182700174D01*
X109342146Y182706581D01*
X109476991Y182756875D01*
X109476998Y182756879D01*
X109592207Y182843125D01*
X109592210Y182843128D01*
X109678456Y182958337D01*
X109678460Y182958344D01*
X109728754Y183093189D01*
X109735162Y183152787D01*
X109735340Y183156107D01*
X109735518Y183156097D01*
X109735519Y183156104D01*
X109735640Y183156090D01*
X109736791Y183156029D01*
X109754785Y183217519D01*
X109771481Y183238256D01*
X109789283Y183256058D01*
X109850606Y183289543D01*
X109860362Y183291261D01*
X118472374Y184454765D01*
X123696340Y184454765D01*
X123697481Y184310996D01*
X123739082Y184173368D01*
X123739082Y184173367D01*
X123817770Y184053033D01*
X123817773Y184053031D01*
X123927176Y183959742D01*
X123980936Y183933363D01*
X123980947Y183933358D01*
X124119854Y183882800D01*
X124325066Y184446615D01*
X123761252Y184651827D01*
X123710692Y184512915D01*
X123696340Y184454765D01*
X118472374Y184454765D01*
X122720054Y185028637D01*
X122728364Y185029196D01*
X124164478Y185029196D01*
X124206890Y185021717D01*
G37*
%TD.AperFunction*%
%TD*%
M02*
